<svg xmlns="http://www.w3.org/2000/svg" width="246" height="136" viewBox="0 0 246 136">
    <g fill="none" fill-rule="evenodd" stroke-width=".5" transform="translate(0 1)">
        <g transform="translate(86 70)">
            <path fill="#FCA306" fill-rule="nonzero" stroke="#0C110E" d="M75.242 19.363c-1.156 9.528-17.727 17.124-37.549 17.124C17.12 36.487.734 28.35.734 18.313L.44 27.095c0 10.036 16.679 18.174 37.253 18.174 19.953 0 36.24-7.653 37.21-17.269v-.006c.03-.297.045-.599.045-.897 0-.32.082-.68.048-.994l.246-6.74z"/>
            <ellipse cx="37.989" cy="18.312" fill="#FFD00B" fill-rule="nonzero" stroke="#13261B" rx="37.255" ry="18.174"/>
            <ellipse cx="37.989" cy="18.312" fill="#FFD00B" fill-rule="nonzero" stroke="#13261B" rx="30.762" ry="14.168"/>
            <g stroke="#0C110E">
                <path d="M22.61 34.924l.005 8.792c1.64.356 3.345.654 5.1.889l-.005-8.782a66.632 66.632 0 0 1-5.1-.899z"/>
                <path d="M18.563 33.887l.006 8.805c1.3.378 2.652.722 4.046 1.024l-.005-8.792a59.273 59.273 0 0 1-4.047-1.037zM31.756 36.254l.005 8.782a76.74 76.74 0 0 0 5.1.227l-.005-8.78a76.595 76.595 0 0 1-5.1-.23zM4.316 26.153l.004 9.023c1.382 1.356 3.099 2.615 5.1 3.752l-.004-8.883c-2.019-1.179-3.739-2.486-5.1-3.892z"/>
                <path d="M.734 18.312L.44 27.094c0 2.901 1.397 5.647 3.88 8.08l-.004-9.022C2.017 23.779.734 21.12.734 18.312zM37.693 36.485c-.28 0-.558-.001-.837-.004l.004 8.78c.277.002.556.005.833.005 1.082 0 2.155-.025 3.213-.069l-.006-8.782c-1.056.047-2.128.07-3.207.07zM9.417 30.045l.004 8.883A37.686 37.686 0 0 0 13.47 40.9l-.005-8.835a36.283 36.283 0 0 1-4.047-2.02z"/>
                <path d="M13.464 32.065l.005 8.835a48.704 48.704 0 0 0 5.1 1.792l-.006-8.805a48.068 48.068 0 0 1-5.099-1.822zM27.71 35.823l.005 8.782c1.319.18 2.669.323 4.046.43l-.005-8.781a70.109 70.109 0 0 1-4.046-.431zM68.332 28.796l.005 8.633c2.23-1.57 3.963-3.32 5.097-5.195l-.005-8.287c-1.196 1.747-2.926 3.38-5.097 4.85z"/>
                <path d="M64.286 31.108l.006 8.708a30.855 30.855 0 0 0 4.045-2.387l-.005-8.633a32.442 32.442 0 0 1-4.046 2.312z"/>
                <path d="M59.19 33.184l.005 8.751a43.134 43.134 0 0 0 5.099-2.12l-.006-8.707a44.125 44.125 0 0 1-5.099 2.076zM40.9 36.415l.006 8.782a75.175 75.175 0 0 0 5.099-.385L46 36.03a70.825 70.825 0 0 1-5.1.385zM73.43 23.947l.004 8.287c.816-1.353 1.319-2.77 1.468-4.237v-.006c.031-.297.046-.599.046-.897 0-.32.082-.68.048-.994l.246-6.739c-.192 1.59-.816 3.127-1.813 4.586zM46 36.03l.005 8.782c1.38-.156 2.73-.344 4.046-.57l-.005-8.78c-1.319.229-2.67.417-4.046.568z"/>
                <path d="M50.046 35.464l.005 8.779c1.765-.3 3.467-.669 5.1-1.09l-.006-8.768c-1.635.416-3.338.78-5.099 1.079z"/>
                <path d="M55.143 34.385l.006 8.768a53.925 53.925 0 0 0 4.046-1.216l-.006-8.751a56.122 56.122 0 0 1-4.046 1.199z"/>
            </g>
        </g>
        <g transform="translate(86 57)">
            <path fill="#FCA306" fill-rule="nonzero" stroke="#0C110E" d="M75.242 19.641c-1.156 9.529-17.727 17.126-37.549 17.126C17.12 36.767.734 28.63.734 18.593l-.294 8.78c0 10.037 16.679 18.174 37.253 18.174 19.953 0 36.24-7.651 37.21-17.267v-.006c.03-.299.045-.599.045-.899 0-.319.082-.678.048-.993l.246-6.74z"/>
            <ellipse cx="37.989" cy="18.593" fill="#FFD00B" fill-rule="nonzero" stroke="#13261B" rx="37.255" ry="18.174"/>
            <ellipse cx="37.989" cy="18.593" fill="#FFD00B" fill-rule="nonzero" stroke="#13261B" rx="30.762" ry="14.167"/>
            <g stroke="#0C110E">
                <path d="M22.61 35.203l.005 8.792c1.64.355 3.345.653 5.1.89l-.005-8.782a64.422 64.422 0 0 1-5.1-.9z"/>
                <path d="M18.563 34.165l.006 8.806c1.3.38 2.652.723 4.046 1.024l-.005-8.792a56.667 56.667 0 0 1-4.047-1.038zM31.756 36.535l.005 8.78c1.666.131 3.367.209 5.1.228l-.005-8.78a78.75 78.75 0 0 1-5.1-.228zM4.316 26.433l.004 9.025c1.382 1.354 3.099 2.613 5.1 3.75l-.004-8.882c-2.019-1.178-3.739-2.486-5.1-3.893z"/>
                <path d="M.734 18.593l-.294 8.78c0 2.904 1.397 5.648 3.88 8.083l-.004-9.025C2.017 24.06.734 21.4.734 18.593zM37.693 36.767c-.28 0-.558-.003-.837-.005l.004 8.779a78.234 78.234 0 0 0 4.046-.062l-.006-8.78a80.84 80.84 0 0 1-3.207.068zM9.417 30.325l.004 8.881a37.397 37.397 0 0 0 4.048 1.974l-.005-8.835a36.283 36.283 0 0 1-4.047-2.02zM13.464 32.345l.005 8.835a48.351 48.351 0 0 0 5.1 1.79l-.006-8.805a47.726 47.726 0 0 1-5.099-1.82zM27.71 36.103l.005 8.782c1.319.179 2.669.323 4.046.429l-.005-8.78a70.109 70.109 0 0 1-4.046-.431zM68.332 29.076l.005 8.635c2.23-1.57 3.963-3.322 5.097-5.195l-.005-8.288c-1.196 1.748-2.926 3.377-5.097 4.848z"/>
                <path d="M64.286 31.39l.006 8.707a31.204 31.204 0 0 0 4.045-2.386l-.005-8.635a32.251 32.251 0 0 1-4.046 2.314z"/>
                <path d="M59.19 33.464l.005 8.751a43.397 43.397 0 0 0 5.099-2.118l-.006-8.707a44.403 44.403 0 0 1-5.099 2.074zM40.9 36.698l.006 8.78a74.174 74.174 0 0 0 5.099-.386L46 36.312a74.57 74.57 0 0 1-5.1.386zM73.43 24.228l.004 8.288c.816-1.353 1.319-2.771 1.468-4.237v-.007c.031-.298.046-.598.046-.898 0-.32.082-.678.048-.994l.246-6.739c-.192 1.592-.816 3.129-1.813 4.587zM46 36.311l.005 8.78c1.38-.153 2.73-.343 4.046-.57l-.005-8.777c-1.319.225-2.67.413-4.046.567z"/>
                <path d="M50.046 35.745l.005 8.778c1.765-.3 3.467-.668 5.1-1.089l-.006-8.77a64.582 64.582 0 0 1-5.099 1.081z"/>
                <path d="M55.143 34.665l.006 8.77a53.922 53.922 0 0 0 4.046-1.218l-.006-8.751c-1.293.437-2.643.84-4.046 1.199z"/>
            </g>
        </g>
        <g transform="translate(88 48)">
            <path fill="#FCA306" fill-rule="nonzero" stroke="#0C110E" d="M75.603 19.77c-1.157 9.529-17.727 17.124-37.55 17.124-20.573 0-36.958-8.136-36.958-18.173L.8 27.503c0 10.035 16.68 18.173 37.254 18.173 19.952 0 36.24-7.653 37.209-17.268v-.006c.03-.297.045-.599.045-.898 0-.32.083-.679.049-.993l.246-6.74z"/>
            <ellipse cx="38.35" cy="18.719" fill="#FFD00B" fill-rule="nonzero" stroke="#13261B" rx="37.255" ry="18.174"/>
            <ellipse cx="38.35" cy="18.719" fill="#FFD00B" fill-rule="nonzero" stroke="#13261B" rx="30.762" ry="14.168"/>
            <g stroke="#0C110E">
                <path d="M22.97 35.332l.005 8.791c1.64.356 3.346.655 5.1.89l-.004-8.782a66.632 66.632 0 0 1-5.1-.9z"/>
                <path d="M18.923 34.295l.006 8.805c1.3.378 2.652.721 4.046 1.023l-.004-8.791a59.273 59.273 0 0 1-4.048-1.037zM32.117 36.661l.004 8.782a76.74 76.74 0 0 0 5.1.227l-.004-8.78a76.595 76.595 0 0 1-5.1-.229zM4.676 26.56l.005 9.024c1.382 1.356 3.099 2.615 5.1 3.752l-.005-8.883c-2.018-1.18-3.738-2.487-5.1-3.892z"/>
                <path d="M1.095 18.72L.8 27.5c0 2.902 1.397 5.648 3.88 8.081l-.004-9.023c-2.298-2.373-3.581-5.032-3.581-7.84zM38.054 36.894c-.28 0-.559-.001-.837-.004l.004 8.78c.277.002.556.005.833.005 1.082 0 2.155-.025 3.213-.068l-.006-8.783c-1.057.046-2.128.07-3.207.07zM9.778 30.453l.004 8.883a37.686 37.686 0 0 0 4.047 1.971l-.004-8.835a36.283 36.283 0 0 1-4.047-2.02z"/>
                <path d="M13.825 32.472l.004 8.835a48.704 48.704 0 0 0 5.1 1.793l-.006-8.805a48.068 48.068 0 0 1-5.098-1.823zM28.07 36.23l.005 8.783c1.32.18 2.67.323 4.046.43l-.004-8.782a70.109 70.109 0 0 1-4.046-.43zM68.693 29.204l.004 8.633c2.23-1.57 3.964-3.32 5.097-5.195l-.004-8.288c-1.196 1.748-2.926 3.38-5.097 4.85z"/>
                <path d="M64.648 31.518l.006 8.707a30.855 30.855 0 0 0 4.045-2.387l-.005-8.632a32.655 32.655 0 0 1-4.046 2.312z"/>
                <path d="M59.55 33.592l.006 8.75a43.134 43.134 0 0 0 5.098-2.119l-.006-8.707a44.125 44.125 0 0 1-5.098 2.076zM41.261 36.824l.006 8.783a75.175 75.175 0 0 0 5.098-.386l-.004-8.782a72.653 72.653 0 0 1-5.1.385zM73.79 24.354l.004 8.288c.817-1.353 1.32-2.771 1.469-4.237v-.006c.03-.297.045-.6.045-.898 0-.32.083-.68.049-.993l.246-6.74c-.192 1.592-.816 3.13-1.813 4.586z"/>
                <path d="M46.361 36.439l.004 8.782c1.38-.156 2.73-.344 4.046-.57l-.004-8.78c-1.32.227-2.67.415-4.046.568z"/>
                <path d="M50.407 35.871l.004 8.78c1.765-.3 3.467-.67 5.1-1.09l-.006-8.769c-1.634.419-3.337.78-5.098 1.08z"/>
                <path d="M55.504 34.792l.006 8.768a53.925 53.925 0 0 0 4.046-1.216l-.006-8.75c-1.293.438-2.643.84-4.046 1.198z"/>
            </g>
        </g>
        <g transform="translate(88 36)">
            <path fill="#FCA306" fill-rule="nonzero" stroke="#0C110E" d="M75.603 20.05c-1.157 9.529-17.727 17.126-37.55 17.126-20.573 0-36.958-8.137-36.958-18.174L.8 27.782c0 10.038 16.68 18.174 37.254 18.174 19.952 0 36.24-7.651 37.209-17.267v-.006c.03-.298.045-.599.045-.899 0-.318.083-.678.049-.993l.246-6.74z"/>
            <ellipse cx="38.35" cy="19.001" fill="#FFD00B" fill-rule="nonzero" stroke="#13261B" rx="37.255" ry="18.174"/>
            <ellipse cx="38.35" cy="19.001" fill="#FFD00B" fill-rule="nonzero" stroke="#13261B" rx="30.762" ry="14.167"/>
            <g stroke="#0C110E">
                <path d="M22.97 35.61l.005 8.793c1.64.355 3.346.653 5.1.89l-.004-8.783a64.422 64.422 0 0 1-5.1-.9z"/>
                <path d="M18.923 34.573l.006 8.805c1.3.38 2.652.723 4.046 1.025l-.004-8.793a56.667 56.667 0 0 1-4.048-1.037zM32.117 36.943l.004 8.78c1.667.13 3.367.208 5.1.227l-.004-8.779a77.658 77.658 0 0 1-5.1-.228zM4.676 26.84l.005 9.025c1.382 1.354 3.099 2.614 5.1 3.75l-.005-8.881c-2.018-1.179-3.738-2.486-5.1-3.893z"/>
                <path d="M1.095 19L.8 27.782c0 2.903 1.397 5.648 3.88 8.083l-.004-9.025c-2.298-2.373-3.581-5.032-3.581-7.838zM38.054 37.174c-.28 0-.559-.003-.837-.004l.004 8.779a78.234 78.234 0 0 0 4.046-.062l-.006-8.781a77.985 77.985 0 0 1-3.207.068zM9.778 30.734l.004 8.882a37.397 37.397 0 0 0 4.047 1.973l-.004-8.835a36.827 36.827 0 0 1-4.047-2.02zM13.825 32.752l.004 8.835a48.351 48.351 0 0 0 5.1 1.791l-.006-8.805a47.388 47.388 0 0 1-5.098-1.82zM28.07 36.51l.005 8.782c1.32.18 2.67.324 4.046.43l-.004-8.78a70.109 70.109 0 0 1-4.046-.432zM68.693 29.484l.004 8.634c2.23-1.57 3.964-3.321 5.097-5.195l-.004-8.287c-1.196 1.747-2.926 3.378-5.097 4.848z"/>
                <path d="M64.648 31.798l.006 8.707a31.204 31.204 0 0 0 4.045-2.387l-.005-8.634a32.462 32.462 0 0 1-4.046 2.314zM59.55 33.872l.006 8.75a43.397 43.397 0 0 0 5.098-2.117l-.006-8.707a44.403 44.403 0 0 1-5.098 2.074zM41.261 37.106l.006 8.78a74.173 74.173 0 0 0 5.098-.387l-.004-8.78a74.57 74.57 0 0 1-5.1.387zM73.79 24.636l.004 8.287c.817-1.352 1.32-2.77 1.469-4.237v-.006c.03-.299.045-.599.045-.899 0-.319.083-.678.049-.993l.246-6.74c-.192 1.593-.816 3.13-1.813 4.588z"/>
                <path d="M46.361 36.719l.004 8.78c1.38-.154 2.73-.343 4.046-.57l-.004-8.778c-1.32.227-2.67.415-4.046.568z"/>
                <path d="M50.407 36.153l.004 8.777c1.765-.3 3.467-.667 5.1-1.088l-.006-8.77a63.89 63.89 0 0 1-5.098 1.08z"/>
                <path d="M55.504 35.072l.006 8.77a53.922 53.922 0 0 0 4.046-1.218l-.006-8.75c-1.293.436-2.643.839-4.046 1.198z"/>
            </g>
        </g>
        <g transform="translate(76 17)">
            <path fill="#FCA306" fill-rule="nonzero" stroke="#0C110E" d="M74.914 19.424c-1.158 9.512-17.727 17.094-37.55 17.094-20.573 0-36.96-8.12-36.96-18.142L.11 27.142c0 10.019 16.68 18.142 37.255 18.142 19.95 0 36.24-7.64 37.208-17.237v-.01c.03-.295.045-.596.045-.895 0-.319.084-.677.048-.992l.248-6.726z"/>
            <ellipse cx="37.658" cy="18.376" fill="#FFD00B" fill-rule="nonzero" stroke="#13261B" rx="37.255" ry="18.142"/>
            <ellipse cx="37.659" cy="18.376" fill="#FFD00B" fill-rule="nonzero" stroke="#13261B" rx="30.762" ry="14.144"/>
            <g stroke="#0C110E">
                <path d="M22.28 34.957l.005 8.778c1.64.353 3.344.651 5.1.889l-.006-8.77a64.73 64.73 0 0 1-5.099-.897z"/>
                <path d="M18.233 33.923l.004 8.79c1.3.379 2.652.72 4.048 1.022l-.005-8.778a56.353 56.353 0 0 1-4.047-1.034zM31.426 36.287l.006 8.765a75.79 75.79 0 0 0 5.1.227l-.006-8.765a75.66 75.66 0 0 1-5.1-.227zM3.986 26.203l.004 9.008c1.383 1.354 3.1 2.611 5.1 3.746l-.004-8.87c-2.019-1.174-3.74-2.48-5.1-3.884zM.403 18.376l-.295 8.766c0 2.898 1.399 5.639 3.88 8.068L3.985 26.2C1.687 23.832.404 21.18.404 18.376zM37.363 36.517c-.28 0-.56-.002-.838-.005l.006 8.765c.275.004.554.007.832.007 1.082 0 2.154-.027 3.212-.069l-.004-8.766a72.965 72.965 0 0 1-3.208.068z"/>
                <path d="M9.086 30.088l.004 8.869a37.74 37.74 0 0 0 4.049 1.968l-.004-8.821a36.46 36.46 0 0 1-4.05-2.016z"/>
                <path d="M13.135 32.104l.004 8.821a48.642 48.642 0 0 0 5.1 1.79l-.004-8.79a48.262 48.262 0 0 1-5.1-1.821zM27.38 35.856l.006 8.77c1.32.176 2.67.32 4.046.426l-.006-8.765a70.216 70.216 0 0 1-4.046-.431zM68.002 28.841l.005 8.62c2.23-1.57 3.965-3.314 5.098-5.188l-.006-8.271c-1.196 1.743-2.927 3.372-5.097 4.84z"/>
                <path d="M63.958 31.15l.004 8.693a30.846 30.846 0 0 0 4.045-2.382l-.005-8.62a32.545 32.545 0 0 1-4.044 2.31zM58.858 33.222l.006 8.735a43.072 43.072 0 0 0 5.098-2.114l-.004-8.692a43.813 43.813 0 0 1-5.1 2.07zM40.572 36.449l.005 8.766a74.405 74.405 0 0 0 5.1-.388l-.005-8.763a71.981 71.981 0 0 1-5.1.385zM73.098 24.002l.006 8.271c.816-1.349 1.319-2.764 1.467-4.226v-.01c.03-.295.046-.596.046-.895 0-.319.083-.677.048-.992l.248-6.727c-.192 1.589-.818 3.123-1.815 4.579z"/>
                <path d="M45.67 36.064l.005 8.763a71.788 71.788 0 0 0 4.046-.566l-.004-8.764c-1.318.227-2.67.416-4.046.567z"/>
                <path d="M49.717 35.499l.004 8.763a61.954 61.954 0 0 0 5.098-1.09l-.004-8.752c-1.635.417-3.338.78-5.098 1.079z"/>
                <path d="M54.815 34.42l.004 8.753a53.277 53.277 0 0 0 4.046-1.214l-.006-8.736c-1.291.44-2.643.837-4.044 1.197z"/>
            </g>
        </g>
        <path fill="#FCA306" fill-rule="nonzero" stroke="#0C110E" d="M161 19.05c-1.158 9.544-17.774 17.155-37.648 17.155-20.629 0-37.055-8.151-37.055-18.205L86 26.795C86 36.85 102.723 45 123.352 45c20.005 0 36.335-7.666 37.307-17.297v-.007c.03-.3.046-.6.046-.9 0-.32.082-.678.047-.994L161 19.05z"/>
        <ellipse cx="123.5" cy="18" fill="#FFD00B" fill-rule="nonzero" stroke="#13261B" rx="37.5" ry="18"/>
        <ellipse cx="123" cy="18" fill="#FFD00B" fill-rule="nonzero" stroke="#13261B" rx="31" ry="14"/>
        <g stroke="#0C110E">
            <path d="M108.037 34.916l.004 8.854c1.642.359 3.345.658 5.1.897l-.004-8.846a63.326 63.326 0 0 1-5.1-.905zM103.99 33.872l.005 8.866c1.3.384 2.65.728 4.046 1.032l-.004-8.854a56.55 56.55 0 0 1-4.048-1.044zM117.183 36.258l.006 8.843c1.665.13 3.367.208 5.098.229l-.006-8.842a76.07 76.07 0 0 1-5.098-.23zM89.742 26.087l.005 9.086c1.382 1.364 3.099 2.633 5.1 3.778l-.005-8.945c-2.017-1.187-3.738-2.503-5.1-3.919zM86.162 18.191l-.296 8.842c0 2.923 1.399 5.687 3.88 8.138l-.004-9.085c-2.297-2.391-3.58-5.067-3.58-7.895zM123.12 36.491c-.279 0-.559-.003-.839-.004l.006 8.841c.277.002.556.005.833.005 1.082 0 2.155-.025 3.213-.07l-.006-8.84a74.805 74.805 0 0 1-3.207.068zM94.844 30.006l.004 8.945a37.737 37.737 0 0 0 4.047 1.987l-.004-8.9a36.308 36.308 0 0 1-4.047-2.032z"/>
            <path d="M98.891 32.037l.004 8.9a48.014 48.014 0 0 0 5.1 1.801l-.006-8.866a46.3 46.3 0 0 1-5.098-1.835zM113.137 35.821l.004 8.846c1.321.179 2.671.326 4.048.432l-.006-8.843a68.557 68.557 0 0 1-4.046-.435zM153.759 28.749l.006 8.693c2.228-1.582 3.962-3.343 5.095-5.231l-.004-8.345c-1.196 1.76-2.926 3.402-5.097 4.883z"/>
            <path d="M149.714 31.077l.006 8.768a31.276 31.276 0 0 0 4.046-2.403l-.006-8.693a32.598 32.598 0 0 1-4.046 2.328z"/>
            <path d="M144.616 33.167l.006 8.81a42.709 42.709 0 0 0 5.098-2.132l-.006-8.768a44.51 44.51 0 0 1-5.098 2.09zM126.327 36.422l.006 8.842a73.741 73.741 0 0 0 5.098-.39l-.004-8.841a74.987 74.987 0 0 1-5.1.39zM158.856 23.866l.004 8.345c.817-1.362 1.32-2.79 1.469-4.265v-.008c.03-.3.045-.603.045-.905 0-.321.083-.681.047-.999l.248-6.787c-.192 1.603-.816 3.15-1.813 4.619z"/>
            <path d="M131.427 36.033l.004 8.841c1.38-.153 2.73-.346 4.048-.573l-.006-8.84c-1.32.229-2.67.42-4.046.572z"/>
            <path d="M135.473 35.463l.006 8.84a62.404 62.404 0 0 0 5.098-1.098l-.004-8.83a62.87 62.87 0 0 1-5.1 1.088z"/>
            <path d="M140.571 34.374l.005 8.83a53.643 53.643 0 0 0 4.046-1.225l-.006-8.81a56.589 56.589 0 0 1-4.045 1.205z"/>
        </g>
        <g transform="translate(170 89)">
            <path fill="#FCA306" fill-rule="nonzero" stroke="#0C110E" d="M75.618 19.286c-1.155 9.512-17.728 17.096-37.55 17.096-20.574 0-36.957-8.123-36.957-18.142l-.296 8.765c0 10.02 16.68 18.142 37.253 18.142 19.953 0 36.24-7.64 37.21-17.237v-.008c.03-.298.045-.597.045-.897 0-.318.082-.675.047-.99l.248-6.729z"/>
            <ellipse cx="38.364" cy="18.238" fill="#FFD00B" fill-rule="nonzero" stroke="#13261B" rx="37.253" ry="18.142"/>
            <ellipse cx="38.364" cy="18.238" fill="#FFD00B" fill-rule="nonzero" stroke="#13261B" rx="30.764" ry="14.142"/>
            <g stroke="#0C110E">
                <path d="M22.986 34.82l.004 8.778c1.642.355 3.345.652 5.1.89l-.005-8.77a65.25 65.25 0 0 1-5.1-.898z"/>
                <path d="M18.938 33.785l.006 8.79c1.3.38 2.65.722 4.046 1.023l-.004-8.778a57.8 57.8 0 0 1-4.048-1.035zM32.131 36.149l.006 8.767c1.666.129 3.367.206 5.099.226l-.006-8.765a76.728 76.728 0 0 1-5.099-.228zM4.69 26.066l.005 9.007c1.383 1.352 3.1 2.611 5.1 3.746l-.004-8.868c-2.017-1.176-3.738-2.482-5.1-3.885z"/>
                <path d="M1.111 18.238l-.296 8.765c0 2.898 1.399 5.638 3.88 8.069l-.004-9.008c-2.297-2.368-3.58-5.02-3.58-7.826zM38.068 36.38c-.278 0-.558-.003-.838-.004l.006 8.765c.277.001.555.004.832.004 1.082 0 2.155-.024 3.214-.068l-.006-8.765a75.455 75.455 0 0 1-3.208.068zM9.792 29.951l.005 8.868a37.874 37.874 0 0 0 4.047 1.97l-.004-8.823a36.04 36.04 0 0 1-4.048-2.015z"/>
                <path d="M13.838 31.966l.005 8.822a48.292 48.292 0 0 0 5.1 1.787l-.006-8.79a47.333 47.333 0 0 1-5.099-1.82zM28.085 35.717l.005 8.77c1.32.177 2.67.323 4.047.429l-.006-8.767a70.355 70.355 0 0 1-4.046-.432zM68.707 28.705l.006 8.617c2.228-1.567 3.963-3.313 5.096-5.185l-.005-8.274c-1.196 1.745-2.926 3.373-5.097 4.842z"/>
                <path d="M64.662 31.013l.005 8.692a31.336 31.336 0 0 0 4.046-2.383l-.006-8.617a32.262 32.262 0 0 1-4.045 2.308z"/>
                <path d="M59.565 33.085l.005 8.734a42.914 42.914 0 0 0 5.099-2.114l-.006-8.692a44.447 44.447 0 0 1-5.098 2.072zM41.276 36.314l.006 8.765a74.37 74.37 0 0 0 5.098-.387l-.004-8.765a75.628 75.628 0 0 1-5.1.387zM73.804 23.863l.005 8.274c.816-1.35 1.32-2.766 1.469-4.229v-.007c.03-.298.045-.598.045-.898 0-.318.082-.675.047-.99l.248-6.729c-.192 1.59-.818 3.125-1.814 4.58z"/>
                <path d="M46.376 35.927l.004 8.765c1.38-.152 2.73-.343 4.047-.568l-.005-8.764a69.4 69.4 0 0 1-4.046.567zM50.422 35.36l.005 8.764a62.875 62.875 0 0 0 5.099-1.088l-.004-8.754c-1.636.417-3.338.78-5.1 1.078z"/>
                <path d="M55.52 34.282l.004 8.754a53.992 53.992 0 0 0 4.046-1.215l-.005-8.734a56.158 56.158 0 0 1-4.045 1.195z"/>
            </g>
        </g>
        <g transform="translate(0 70)">
            <path fill="#FCA306" fill-rule="nonzero" stroke="#0C110E" d="M75.618 19.286c-1.155 9.512-17.728 17.096-37.55 17.096-20.574 0-36.957-8.123-36.957-18.142l-.296 8.765c0 10.02 16.68 18.142 37.253 18.142 19.953 0 36.24-7.64 37.21-17.237v-.008c.03-.298.045-.597.045-.897 0-.318.082-.675.047-.99l.248-6.729z"/>
            <ellipse cx="38.364" cy="18.238" fill="#FFD00B" fill-rule="nonzero" stroke="#13261B" rx="37.253" ry="18.142"/>
            <ellipse cx="38.364" cy="18.238" fill="#FFD00B" fill-rule="nonzero" stroke="#13261B" rx="30.764" ry="14.142"/>
            <g stroke="#0C110E">
                <path d="M22.986 34.82l.004 8.778c1.642.355 3.345.652 5.1.89l-.005-8.77a65.25 65.25 0 0 1-5.1-.898z"/>
                <path d="M18.938 33.785l.006 8.79c1.3.38 2.65.722 4.046 1.023l-.004-8.778a57.8 57.8 0 0 1-4.048-1.035zM32.131 36.149l.006 8.767c1.666.129 3.367.206 5.099.226l-.006-8.765a76.728 76.728 0 0 1-5.099-.228zM4.69 26.066l.005 9.007c1.383 1.352 3.1 2.611 5.1 3.746l-.004-8.868c-2.017-1.176-3.738-2.482-5.1-3.885z"/>
                <path d="M1.111 18.238l-.296 8.765c0 2.898 1.399 5.638 3.88 8.069l-.004-9.008c-2.297-2.368-3.58-5.02-3.58-7.826zM38.068 36.38c-.278 0-.558-.003-.838-.004l.006 8.765c.277.001.555.004.832.004 1.082 0 2.155-.024 3.214-.068l-.006-8.765a75.455 75.455 0 0 1-3.208.068zM9.792 29.951l.005 8.868a37.874 37.874 0 0 0 4.047 1.97l-.004-8.823a36.04 36.04 0 0 1-4.048-2.015z"/>
                <path d="M13.838 31.966l.005 8.822a48.292 48.292 0 0 0 5.1 1.787l-.006-8.79a47.333 47.333 0 0 1-5.099-1.82zM28.085 35.717l.005 8.77c1.32.177 2.67.323 4.047.429l-.006-8.767a70.355 70.355 0 0 1-4.046-.432zM68.707 28.705l.006 8.617c2.228-1.567 3.963-3.313 5.096-5.185l-.005-8.274c-1.196 1.745-2.926 3.373-5.097 4.842z"/>
                <path d="M64.662 31.013l.005 8.692a31.336 31.336 0 0 0 4.046-2.383l-.006-8.617a32.262 32.262 0 0 1-4.045 2.308z"/>
                <path d="M59.565 33.085l.005 8.734a42.914 42.914 0 0 0 5.099-2.114l-.006-8.692a44.447 44.447 0 0 1-5.098 2.072zM41.276 36.314l.006 8.765a74.37 74.37 0 0 0 5.098-.387l-.004-8.765a75.628 75.628 0 0 1-5.1.387zM73.804 23.863l.005 8.274c.816-1.35 1.32-2.766 1.469-4.229v-.007c.03-.298.045-.598.045-.898 0-.318.082-.675.047-.99l.248-6.729c-.192 1.59-.818 3.125-1.814 4.58z"/>
                <path d="M46.376 35.927l.004 8.765c1.38-.152 2.73-.343 4.047-.568l-.005-8.764a69.4 69.4 0 0 1-4.046.567zM50.422 35.36l.005 8.764a62.875 62.875 0 0 0 5.099-1.088l-.004-8.754c-1.636.417-3.338.78-5.1 1.078z"/>
                <path d="M55.52 34.282l.004 8.754a53.992 53.992 0 0 0 4.046-1.215l-.005-8.734a56.158 56.158 0 0 1-4.045 1.195z"/>
            </g>
        </g>
    </g>
</svg>
