<?xml version="1.0" encoding="UTF-8" standalone="no"?>
<svg width="19px" height="15px" viewBox="0 0 19 15" version="1.1" xmlns="http://www.w3.org/2000/svg" xmlns:xlink="http://www.w3.org/1999/xlink">
    <!-- Generator: sketchtool 49.1 (51147) - http://www.bohemiancoding.com/sketch -->
    <title>747B6868-1ADB-4D7C-BC36-D85F4FFD0B29</title>
    <desc>Created with sketchtool.</desc>
    <defs></defs>
    <g id="Page-1" stroke="none" stroke-width="1" fill="none" fill-rule="evenodd">
        <g id="Homepage_latest" transform="translate(-1162.000000, -3735.000000)" fill="#6D6F7B" fill-rule="nonzero">
            <g id="section_footer" transform="translate(0.000000, 3622.000000)">
                <g id="meta_social" transform="translate(0.000000, 112.000000)">
                    <g id="icon_social" transform="translate(1162.000000, 0.000000)">
                        <g id="Medium" transform="translate(0.000000, 1.000000)">
                            <path d="M19,2.21191406 L18.2503911,2.21191406 C17.9683598,2.21191406 17.575,2.61108375 17.575,2.86743187 L17.575,12.1801762 C17.575,12.4401853 17.9683598,12.7880859 18.2503911,12.7880859 L19,12.7880859 L19,15 L12.1904295,15 L12.1904295,12.7880859 L13.6154295,12.7880859 L13.6154295,2.99926781 L13.548633,2.99926781 L10.2199223,15 L7.64453125,15 L4.3566411,2.99926781 L4.275,2.99926781 L4.275,12.7880859 L5.7,12.7880859 L5.7,15 L0,15 L0,12.7880859 L0.73105445,12.7880859 C1.0316411,12.7880859 1.425,12.4401853 1.425,12.1801762 L1.425,2.86743187 C1.425,2.61108375 1.0316411,2.21191406 0.73105445,2.21191406 L0,2.21191406 L0,0 L7.1287107,0 L9.4666018,8.68286156 L9.5333982,8.68286156 L11.8935545,0 L19,0 L19,2.21191406 Z" id="Shape"></path>
                        </g>
                    </g>
                </g>
            </g>
        </g>
    </g>
</svg>