<svg xmlns="http://www.w3.org/2000/svg" xmlns:xlink="http://www.w3.org/1999/xlink" width="657" height="477" viewBox="0 0 657 477">
    <defs>
        <path id="b" d="M135.974 0h335.828v424.763H135.974z"/>
        <filter id="a" width="104.2%" height="103.3%" x="-2.1%" y="-1.2%" filterUnits="objectBoundingBox">
            <feOffset dy="2" in="SourceAlpha" result="shadowOffsetOuter1"/>
            <feGaussianBlur in="shadowOffsetOuter1" result="shadowBlurOuter1" stdDeviation="2"/>
            <feColorMatrix in="shadowBlurOuter1" values="0 0 0 0 0 0 0 0 0 0 0 0 0 0 0 0 0 0 0.138671875 0"/>
        </filter>
        <path id="d" d="M0 0h255.6v75.6H0z"/>
        <filter id="c" width="120.7%" height="170.1%" x="-8.4%" y="-31.1%" filterUnits="objectBoundingBox">
            <feOffset dx="5" dy="3" in="SourceAlpha" result="shadowOffsetOuter1"/>
            <feGaussianBlur in="shadowOffsetOuter1" result="shadowBlurOuter1" stdDeviation="8"/>
            <feColorMatrix in="shadowBlurOuter1" values="0 0 0 0 0 0 0 0 0 0 0 0 0 0 0 0 0 0 0.133010643 0"/>
        </filter>
    </defs>
    <g fill="none" fill-rule="evenodd" transform="translate(0 2)">
        <path fill="#DEDEE0" fill-rule="nonzero" d="M3.129 460.084s233.3 18.16 274.613 13.3c41.314-4.857 78.344.542 126.977.885 32.497.23 106.622-3.025 161.312-10.141 27.157-3.534 89.821-7.378 88.821-16.792-.262-2.47-38.279.653-53.324-.034-108.078-4.94-596.243 2.846-598.4 12.782z"/>
        <path stroke="#262840" stroke-width=".81" d="M69.926 430.433s3.697.153-3.878 11.005M91.296 446.246s-19.189 1.682-25.248 1.718"/>
        <g fill-rule="nonzero">
            <path fill="#2E8BE6" d="M581.759 359.016s-7.665 6.659-17.63 6.456c-9.965-.201-47.908.412-51.356.003-3.45-.407-22.133-1.011-27.259-11.906l41.63 1.304 53.083.357 1.532 3.786z"/>
            <path fill="#262840" d="M552.468 369.214h19.518v3.12h-19.518zM505.873 369.214h19.518v3.12h-19.518zM553.619 400.78h19.519v3.12h-19.52zM507.023 400.78h19.518v3.12h-19.518z"/>
            <path fill="#C7FFAB" d="M581.759 355.686c0 1.171.902 2.12 2.012 2.12 1.111 0 2.012-.949 2.012-2.12v-59.283c0-1.17-.9-2.118-2.012-2.118-1.11 0-2.012.948-2.012 2.118v59.283zM538.067 354.444c0 1.17.901 2.12 2.012 2.12 1.11 0 2.012-.95 2.012-2.12V295.16c0-1.17-.901-2.118-2.012-2.118-1.11 0-2.012.949-2.012 2.118v59.283z"/>
            <path fill="#2E8BE6" d="M558.188 356.98c0 .455.901.826 2.013.826 1.111 0 2.011-.371 2.011-.827v-23.15c0-.457-.9-.827-2.011-.827-1.112 0-2.013.37-2.013.827v23.15zM512.774 354.046c0 .456.9.827 2.01.827 1.11 0 2.012-.37 2.012-.827v-23.15c0-.457-.902-.826-2.013-.826-1.11 0-2.01.369-2.01.827v23.15z"/>
            <path fill="#C7FFAB" d="M524.462 356.292c0 1.505 1.16 2.724 2.587 2.724h58.83c1.43 0 2.587-1.22 2.587-2.724 0-1.504-1.157-2.723-2.586-2.723h-58.83c-1.43 0-2.588 1.219-2.588 2.723zM505.873 331.375c0 1.449 1.116 2.623 2.492 2.623h29.225c1.375 0 2.49-1.174 2.49-2.623 0-1.447-1.115-2.623-2.49-2.623h-29.224c-1.377 0-2.493 1.176-2.493 2.623zM551.672 331.375c0 1.449 1.116 2.623 2.492 2.623h27.116c1.375 0 2.49-1.174 2.49-2.623 0-1.447-1.115-2.623-2.49-2.623h-27.115c-1.377 0-2.493 1.176-2.493 2.623z"/>
            <path fill="#0BC4FF" d="M581.759 298.646s-19.928 7.22-39.668 0v14.69s23.38 7.951 39.668 1.092v-15.782zM479.892 356.292c0 1.505 1.16 2.724 2.589 2.724h46.293c1.43 0 2.587-1.22 2.587-2.724 0-1.504-1.159-2.723-2.587-2.723h-46.293c-1.43 0-2.59 1.219-2.59 2.723z"/>
            <path fill="#C7FFAB" d="M493.491 418.74c-.496.796-.282 1.868.475 2.39.76.522 1.776.296 2.272-.5l39.842-64.147c.494-.798.282-1.868-.477-2.391-.76-.523-1.776-.298-2.272.5l-39.84 64.147z"/>
            <path fill="#0BC4FF" d="M535.506 420.528c.5.794 1.519 1.013 2.274.487.756-.526.962-1.6.464-2.394l-40.159-63.927c-.499-.795-1.517-1.014-2.272-.49-.757.529-.965 1.6-.464 2.397l40.157 63.927z"/>
            <path fill="#C7FFAB" d="M540.759 418.498c-.495.798-.284 1.87.475 2.39.76.522 1.776.297 2.272-.5l39.84-64.146c.495-.798.283-1.87-.474-2.391-.76-.523-1.778-.3-2.274.5l-39.84 64.147z"/>
            <path fill="#0BC4FF" d="M582.774 420.286c.501.794 1.518 1.014 2.274.487.757-.526.964-1.599.464-2.392l-40.157-63.927c-.501-.796-1.519-1.015-2.274-.49-.758.528-.965 1.6-.465 2.396l40.158 63.926z"/>
            <path fill="#262840" d="M556.464 385.402c0 1.087.836 1.968 1.869 1.968 1.032 0 1.868-.88 1.868-1.968v-.186c0-1.086-.836-1.967-1.868-1.967s-1.869.881-1.869 1.967v.186zM509.035 385.402c0 1.087.838 1.968 1.87 1.968 1.03 0 1.87-.88 1.87-1.968v-.186c0-1.086-.838-1.967-1.87-1.967-1.03 0-1.87.881-1.87 1.967v.186z"/>
        </g>
        <path fill="#2E8BE6" fill-rule="nonzero" d="M74.321 153.234h4.27v258.261h-4.27z"/>
        <path fill="#262840" fill-rule="nonzero" d="M77.247 153.234h2.388v258.261h-2.388z"/>
        <g fill="#262840" fill-rule="nonzero">
            <path d="M72.156 399.132h8.987v12.365h-8.987z"/>
            <path d="M74.559 411.495h4.27v39.844h-4.27z"/>
            <path d="M106.143 453.032l3.569-2.344-28.634-42.854-3.569 2.343zM72.081 407.01l3.568 2.346-28.634 42.855-3.57-2.347z"/>
            <path d="M64.95 422.791h23.4v2.312h-23.4z"/>
        </g>
        <g fill-rule="nonzero">
            <use fill="#000" filter="url(#a)" xlink:href="#b"/>
            <use fill="#FCFCFC" fill-rule="evenodd" xlink:href="#b"/>
        </g>
        <path fill="#FFF" d="M198.9 41.4h255.6V117H198.9z"/>
        <path fill="#F7F7F7" d="M215.1 59.4h37.8v35.1h-37.8z"/>
        <text fill="#9B9B9B" fill-opacity=".391" font-family="WorkSans-Light, Work Sans" font-size="12.6" font-weight="300" transform="translate(198.9 41.4)">
            <tspan x="64.8" y="33.6">US$ 2,252</tspan> <tspan x="64.8" y="48.6">Raised of $8,000 goal</tspan>
        </text>
        <path fill="#FFF" d="M198.9 177.3h255.6v75.6H198.9z"/>
        <path fill="#F7F7F7" d="M215.1 195.3h37.8v35.1h-37.8z"/>
        <text fill="#9B9B9B" fill-opacity=".391" font-family="WorkSans-Light, Work Sans" font-size="12.6" font-weight="300" transform="translate(198.9 177.3)">
            <tspan x="64.8" y="33.6">US$ 2,252</tspan> <tspan x="64.8" y="48.6">Raised of $8,000 goal</tspan>
        </text>
        <path fill="#FFF" d="M198.9 257.4h255.6V333H198.9z"/>
        <path fill="#FFF" d="M215.1 275.4h37.8v35.1h-37.8z"/>
        <text fill="#9B9B9B" fill-opacity=".391" font-family="WorkSans-Light, Work Sans" font-size="12.6" font-weight="300" transform="translate(198.9 257.4)">
            <tspan x="64.8" y="33.6">US$ 2,252</tspan> <tspan x="64.8" y="48.6">Raised of $8,000 goal</tspan>
        </text>
        <g transform="translate(170.1 110.7)">
            <use fill="#000" filter="url(#c)" xlink:href="#d"/>
            <use fill="#FFF" xlink:href="#d"/>
        </g>
        <path fill="#F7F7F7" d="M186.3 128.7h37.8v35.1h-37.8z"/>
        <text fill="#9B9B9B" font-family="WorkSans-Light, Work Sans" font-size="12.6" font-weight="300" transform="translate(170.1 110.7)">
            <tspan x="64.8" y="33.6">US$ 2,252</tspan> <tspan x="64.8" y="48.6">Raised of $8,000 goal</tspan>
        </text>
        <path fill="#F7F7F7" fill-rule="nonzero" d="M154.588 396.203s82.664 15.586 318.006 16.573v11.987H154.111l.477-28.56z"/>
        <path fill="#2E8BE6" fill-rule="nonzero" d="M108.115 104.71l-50.399 20.785c.196 2.32.75 4.744 1.694 7.15 1.07 2.721 2.522 5.12 4.203 7.1l49.35-21.044-4.848-13.991zM88.08 136.965h4.27v15.22h-4.27z"/>
        <path fill="#262840" fill-rule="nonzero" d="M67.387 123.545l.002-.051h-4.152c-1.584 0-2.87 1.799-2.87 4.018s1.286 4.016 2.87 4.016h3.714c1.584 0 2.87-1.797 2.87-4.016 0-2.011-1.057-3.672-2.434-3.967z"/>
        <path fill="#2E8BE6" fill-rule="nonzero" d="M102.744 89.486l-3.08 8.817s7.28-1.4 9.1-1.12l5.18-11.896-11.2 4.199zM118.004 101.942l7.7-3.639 5.18 12.736-7.56 3.638z"/>
        <path fill="#262840" fill-rule="nonzero" d="M121.364 124.194l9.52 5.038-9.52 4.9-9.1-3.92z"/>
        <path fill="#0BC4FF" fill-rule="nonzero" d="M104.704 94.868l-40.116 15.937a9.285 9.285 0 0 0-3.348 2.274c-2.677 2.813-3.95 7.372-3.524 12.416l50.399-20.785-3.411-9.842z"/>
        <path fill="#262840" fill-rule="nonzero" d="M78.069 145.127l38.748-15.307-3.854-11.12-49.349 21.044c4.173 4.911 9.763 7.226 14.455 5.383z"/>
        <ellipse cx="78.664" cy="124.54" fill="#FFD00B" fill-rule="nonzero" rx="1.96" ry="1.606"/>
        <ellipse cx="87.267" cy="121.328" fill="#FFD00B" fill-rule="nonzero" rx="1.96" ry="1.605"/>
        <ellipse cx="62.914" cy="127.512" fill="#FFD00B" fill-rule="nonzero" rx="2.87" ry="4.017"/>
        <ellipse cx="62.914" cy="127.512" fill="#262840" fill-rule="nonzero" rx="1.33" ry="1.605"/>
        <path fill="#262840" fill-rule="nonzero" d="M67.183 125.495h2.101v28.79h-2.101z"/>
        <path fill="#262840" fill-rule="nonzero" d="M68.233 152.185h25.411v2.1H68.233z"/>
        <path fill="#262840" fill-rule="nonzero" d="M91.544 130.45h2.1v23.834h-2.1z"/>
        <path fill="#2E8BE6" fill-rule="nonzero" d="M62.913 136.965h4.27v17.32h-4.27z"/>
        <path stroke="#262840" stroke-width=".81" d="M83.85 140.957v35.862s3.32 8.607 3.416 10.521c.096 1.911-.175 24.384-.175 24.384s-1.837 11.479-8.65 22.236c0 0-7.095 9.563-8.078 22.713-.983 13.15 0 175.06 0 175.06"/>
        <ellipse cx="110.076" cy="112.654" fill="#262840" fill-rule="nonzero" rx="12.803" ry="18.436" transform="rotate(-21.439 110.076 112.654)"/>
        <ellipse cx="110.075" cy="112.067" fill="#F3F4FF" fill-rule="nonzero" stroke="#262840" stroke-width=".81" rx="10.13" ry="14.587" transform="rotate(-21.439 110.075 112.067)"/>
        <path fill="#2C3145" fill-rule="nonzero" d="M430.502 447.33s-1.287 1.797 2.55 2.649c3.837.853 30.064.378 30.703-.047.639-.426 1.292-3.508-1.267-3.08-2.556.426-31.986 1.434-31.986.477zM509.877 449.726v.82s15.04 8.614 19.077 9.658c3.872 1 10.452-.1 8.21-5.22 0 0-2.563 5.011-8.671 3.412l-17.725-8.909s-.89-.575-.89.24z"/>
        <path fill="#FCBDAB" fill-rule="nonzero" d="M512.573 222.01s-3.79-14.298-4.983-15.643c-1.194-1.344-4.816-1.85-6.202 0-1.386 1.851-4.284 5.929-3.644 7.306.639 1.377.341 9.247.341 9.247L494.63 224s.679 13.103 4.202 13.088c4.939-.02 12.99-13.646 13.742-15.079z"/>
        <path fill="#3A312B" fill-rule="nonzero" d="M512.099 194.75s-4.077 7.71-2.982 10.564c1.097 2.853-7.644-.342-8.673-3.725-1.032-3.382-3.072 7.202-6.425 4.786-3.352-2.415-4.246-14.886-9.819-9.998l.232 5.23s-5.55-.886-5.336-5.843c0 0-14.386-9.492-.36-19.305 0 0-5.646 4.688-4.009 8.622 0 0 2.337-5.085 7.248-5.261 0 0-.957 2.377-.127 3.434 0 0 3.128-2.883 5.134-2.832 0 0-.74 2.977.503 3.797 0 0 4.828-7.47 7.584-6.467 0 0-1.544 3.264 1.049 4.822 0 0 8.883-1.327 9.446 2.765 0 0 1.454-1.741 2.588-1.604 0 0-.997 1.125-.798 3.449 0 0 7.083 2.15 4.745 7.566z"/>
        <path fill="#707ED0" fill-rule="nonzero" d="M509.877 440.727l.5 8.54s14.847 9.35 19.537 9.92c4.687.567 8.17-2.037 7.033-5.374 0 0-1.493-3.266-11.509-10.085l-1.669-1.705s-7.356 2.326-13.892-1.296z"/>
        <path stroke="#3A3535" stroke-width=".5" d="M527.64 446.497s-2.77.214-3.34 2.132M530.624 448.912s-3.268.21-3.34 1.635M532.826 451.041s-2.771.286-2.912 1.706"/>
        <path fill="#4D273E" fill-rule="nonzero" d="M507.462 415.318l1.492 24.61s10.42 9.962 15.347.638l1.67-37.607v-41.76l-.925-40.163-.32-30.681-1.278-7.671-35.808 1.065-31.437 139.564-3.178 9.428s4.77 9.676 10.636 3.776c0 0 14.387-29.51 16.84-39.95 2.45-10.439 18.754-65.091 18.754-65.091l1.065.532 7.142 83.31z"/>
        <path fill="#6A77CD" fill-rule="nonzero" d="M451.986 430.754s6.075 9.056 12.895 5.647c6.82-3.41-.533 10.228-.959 11.186-.426.957-31.97 2.023-32.93 0-.958-2.027 3.527-8.205 18.388-12.147 0 0 2.073-1.064 2.606-4.686z"/>
        <path stroke="#3A3535" stroke-width=".5" d="M444.586 438.116s1.6 1.17 1.6 3.516M441.71 439.747s1.174-.055 1.302 2.735M438.192 440.752s1.705.746 1.492 2.87"/>
        <path fill="#5295F7" fill-rule="nonzero" d="M486.468 271.498l.942 13.302c-1.263.761 34.12-1.583 36.676-2.115 2.557-.534-2.985-13.53-2.985-13.53s6.396 3.09 9.805 2.237c3.41-.852 5.222-3.622 0-19.069-5.22-15.448-6.606-22.905-10.016-24.822-3.41-1.918-7.916-6.072-7.916-6.072s-9.61 7.59-12.818 7.057c-2.021-.336-3.966-.435-5.173-4.075-.674-2.03-8.348 1.828-9.58 10.015-.98 6.495-3.944 24.822-3.944 24.822l-6.288-9.375s-5.641 2.137-8.631 3.317c-2.923 1.152 10.656 22.89 16.413 21.826 5.753-1.067 2.982-1.28 3.515-3.518z"/>
        <path fill="#FCBDAB" fill-rule="nonzero" d="M503.978 245.611s-4.189-5.753-5.893-5.753c-1.706 0-11.297-2.237-11.297-2.237s-1.172 1.704 2.984 2.983c4.157 1.279 3.676 1.492 3.676 1.492l-2.61 2.763s.106 1.605 1.705 3.629c1.598 2.024 2.763 2.45 2.763 2.45s-.42-1.917.646-2.024c1.066-.107 2.095 1.598 4.245 1.384 2.15-.212 3.781-4.687 3.781-4.687zM467.604 253.74l-4.581-9.601s-4.476-3.729-3.41-5.966c1.066-2.238 1.802-5.327 6.602-5.327 4.8 0 5.227 3.836 5.227 4.581 0 .334-.315-.428-.127-.961.234-.66.98-1.17.98-1.17s1.599 5.221.639 6.5c-.96 1.278-.533 4.793-.533 4.793l2.075 4.389c-.001 0-5.272 3.842-6.872 2.762z"/>
        <path stroke="#2B84EF" stroke-width=".5" d="M513.95 237.62s3.145 10.572 5.987 13.317"/>
        <path fill="#FCBDAB" fill-rule="nonzero" d="M483.11 195.864s.408 21.323 11.873 19.253c0 0 8.4-1.426 8.758-8.379l1.161-2.991-3.632-2.632s4.539-3.48.681-5.668c0 0-4.588-1.703-4.208 6.298 0 0 .043 4.413-2.885 4.061 0 0 1.263-7.323-1.058-8.752 0 0-2.333-4.498-10.69-1.19z"/>
        <path fill="#757373" fill-rule="nonzero" d="M483.11 192.58s-5.562-.859-4.13-5.297c1.433-4.437-1.335 3.867 4.13 5.297zM495.307 194.65s-8.88-1.783-6.732-7.51c2.148-5.725-3.434 4.998 6.732 7.51z"/>
        <path fill="#DD9F90" fill-rule="nonzero" d="M499.096 223.107l1.06-9.024s5.415-5.059 5.361-6.7c-.053-1.64-5.194 6.836-7.623 6.815l.19 8.722s-.385 1.304 1.012.187zM493.232 246.74s6.235-.466 9.029 1.768c0 0-.703 1.75-2.064 1.79-2.303.071-2.303-.523-4.245-1.383-1.986-.88 1.523 1.57-.645 2.024-2.168.454-2.763-2.45-2.763-2.45l.688-1.749zM460.285 238.677s2.326 2.946 4.002 3.69c1.674.744 1.21 2.23 3.257 1.022 2.048-1.207 2.792 0 2.792 0s-2.375-.267-3.374.89c-1 1.159 2.537 8.476 3.84 8.91 1.302.436-2.982 1.006-3.198.552-.216-.454-4.528-10.071-4.807-10.071-.28 0-4.25-3.22-3.185-5.497 1.066-2.278.673.504.673.504zM500.156 195.413s.735 4.682-.998 6.544c-1.734 1.862.009 1.657 2.549-1.218 2.538-2.877 3.297-4.562-1.551-5.326zM483.368 199.288s4.254-4.971 9.215-3.509c0 0-4.424-3.188-9.473-.366l.258 3.875z"/>
        <path fill="#757373" fill-rule="nonzero" d="M504.902 191.599s2.941 2.5 1.33 7.69c-1.614 5.189.482 4.281.482 4.281s2.194-12.033-1.812-11.971zM494.006 178.51s-2.549 3.35 1.3 6.079c3.851 2.73-3.847-2.605-1.3-6.079z"/>
        <path fill="#2B84EF" fill-rule="nonzero" d="M487.846 241.36l-1.264 31.756s-1.955 4.284-5.655 1.535c-3.7-2.748 7.603-21.326 6.92-33.29zM500.962 250.455s2.353 6.308 11.61 16.926c9.259 10.619 10.851 14.224 10.954 15.303.102 1.078 3.29.33-2.423-13.53l-20.14-18.7z"/>
        <path stroke="#2B84EF" stroke-width=".5" d="M526.964 256.05s-21.412-12.408-22.062-11.771c-.462.452-3.088 5.8-3.94 6.176-.853.376 19.715 18.167 19.715 18.167"/>
        <path fill="#2B84EF" fill-rule="nonzero" d="M513.614 238.677s.58 3.98.337 5.602c-.243 1.623-1.293 3.076.059 4.135 1.353 1.06 6.549 3.972 6.549 3.972s-6.645-14.065-6.608-15.298c.036-1.234-.337 1.59-.337 1.59z"/>
        <path stroke="#2B84EF" stroke-width=".5" d="M512.733 223.56l6.372 7.363s-3.629 3.675-4.095 5.854M519.105 230.923s2.729-.756 4.002.466"/>
        <path fill="#6B1F50" fill-rule="nonzero" d="M486.635 288.312s31.042 1.738 37.543-1.247l-.146-4.122-36.622 1.857-.775 3.512z"/>
        <path fill="#84360F" fill-rule="nonzero" d="M139.94 453.328l-17.937-125.087-1.766-27.941s10.089-5.3 12.61-8.512c2.52-3.212 7.092 26.176 7.092 26.176l18.254 134.402c0 .001-17.343 5.58-18.253.962z"/>
        <path fill="#84360F" fill-rule="nonzero" d="M107.208 413.748l1.05 43.467s15.384 3.317 17.275.767c1.892-2.55-1.638-89.525-1.638-89.525l-2.9-62.539-.758-12.298-20.428 3.45 7.399 116.678z"/>
        <path fill="#FCBDAB" fill-rule="nonzero" d="M141.458 265.688l-4.051 28.806.668 2.792-2.057-1.764-1.47-14.034 1.92-17.378z"/>
        <path fill="#4048AF" fill-rule="nonzero" d="M129.123 237.654c-7.063-.127-14.35-4.157-14.35-4.157s-8.222.075-8.979.605c-.757.53-19.418 33.052-19.418 33.052s10.717 2.773 15.256.504c3.675-1.837.706 13.674-.558 19.646 0 0-2.937 7.364-1.955 10.867.983 3.501 21.633 3.81 21.633 3.81l15.266-4.692.166-9.15 1.891-33.342s-1.891-17.018-8.952-17.143z"/>
        <path fill="#3A312B" fill-rule="nonzero" d="M132.687 210.329s2.84-12.01-3.267-11.788c0 0-7.809-4.234-13.346-.004 0 0-3.693 2.227-4.118 7.122 0 0-3.267-2.002-2.7 5.783 0 0-1.02 5.508 1.932 9.84 6.311 9.265-.936-9.84 2.187 1.06l2.983-7.562 13.915 1.334.142 4.672s5.862-4.672 2.93-9.787c-2.93-5.118-.658-.67-.658-.67z"/>
        <path fill="#3A312B" fill-rule="nonzero" d="M132.342 210.484s6.542-4.481-.785-10.01c-7.325-5.53 4.484 4.781 0 5.678-4.485.897.785 4.332.785 4.332z"/>
        <path fill="#FCBDAB" fill-rule="nonzero" d="M133.2 212.194s1.005 15.63-2.59 17.017c-3.597 1.387-12.475 3.656-16.914-5.043-4.44-8.697-.279-4.278-.279-4.278s-3.91-1.605-1.978-6.66c1.9-4.97 4.737-.786 4.868.727.13 1.513 2.35-3.137 2.35-3.137l14.542 1.374z"/>
        <path fill="#FCBDAB" fill-rule="nonzero" d="M114.872 225.573v9.94s10.91 13.11 13.637 10.085v-23.446s-12.873 4.177-13.637 3.42z"/>
        <path fill="#07649E" fill-rule="nonzero" d="M116.25 453.062s6.95 1.24 10.424 8.685c0 0-18.464 1.283-20.622.056-1.953-1.112 4.49-8.37 10.197-8.741zM158.698 452.5s11.38 1.346 11.914 6.903c0 0 .248 2.345-.372 2-.62-.345-24.943.189-29.658-2 0 0-1.366-3.057-1.366-5.044 0-1.984 8.686-1.611 13.03-1.86 4.344-.247 6.452 0 6.452 0z"/>
        <path fill="#FCBDAB" fill-rule="nonzero" d="M86.841 266.34s-3.425 6.366-4.559 10.526c-1.134 4.16 14.376 5.357 41.613-5.262l-3.658-6.902s-17.527 2.024-19.04 2.177c-1.514.155-14.356-.54-14.356-.54z"/>
        <path fill="#333F96" fill-rule="nonzero" d="M133.329 240.159s8.717 4.366 8.129 25.529h-4.852s-2.058-24.228-3.277-25.53z"/>
        <path fill="#84360F" fill-rule="nonzero" stroke="#847A81" stroke-width=".5" d="M134.547 294.2s.15.016.388.078c.768.201 2.465.878 3.14 3.008.883 2.793 1.14 16.302 1.14 16.302l-4.668.746"/>
        <path fill="#014263" fill-rule="nonzero" d="M105.825 461.747s12.907 3.35 20.849 0c0 0-6.95-5.831-10.425-4.964 0 0-5.46.002-10.424 4.964z"/>
        <path fill="#DD9F90" fill-rule="nonzero" d="M130.142 229.376s-9.6 4.383-11.84 3.047c-2.237-1.335-2.932 3.675-2.932 3.675l-.497-.585v-9.425s5.074 5.121 15.269 3.288zM83.561 273.253s36.629-1.665 42.53-3.155c5.9-1.489-15.02 6.486-24.951 8.436 0 0-13.634 2.807-17.128.597-3.494-2.21-.45-5.878-.45-5.878z"/>
        <path fill="#333F96" fill-rule="nonzero" d="M102.031 265.951s6.336-8.819 7.391-11.722c1.056-2.902-.792 11.722-.792 11.722s-5.543.903-6.599 0zM112.225 237.458s12.375 12.812 16.995 11.889"/>
        <path stroke="#014263" stroke-width=".5" d="M115.998 453.498s.766 1.942.605 3.221M115.903 454.718s-1.395.217-1.228-.34l.204-.682.399-.989s-.365.954.147 1.363c.51.41.204-.85.477-1.363.272-.512.483.46.53 1.048.049.589.287-.469.696-.775.41-.307-.409.477-.374 1.568"/>
        <path fill="#014263" fill-rule="nonzero" d="M139.626 456.75s28.87 3.411 29.642.284c.462-1.876 2.166 4.398 1.392 4.404-28.574.268-30.079-2.035-30.079-2.035l-.955-2.652z"/>
        <path stroke="#014263" stroke-width=".5" d="M159.726 453.062s4.8.959 8.5 3.155M160.534 453.254s-1.706-1.865-.633-2.124c1.072-.26.423.229.926 1.062l.503.834s-.07.44.417.123l.486-.316s-2.066.815-2.869-.18c-.803-.995-1.17 1.414-1.17 1.414s.341-1.383 1.707-.607"/>
        <path fill="#84360F" fill-rule="nonzero" stroke="#000" stroke-width=".5" d="M103.06 310.925h8.389"/>
        <path fill="#E49D74" fill-rule="nonzero" d="M224.21 413.526l2.952 35.105s5.738 3.125 10.1 5.282c5.889 2.913 9.013-.777 10.721-.777 1.71 0-9.012-3.419-10.41-4.816-1.399-1.398.142-34.794.142-34.794H224.21z"/>
        <path fill="#C67F5C" fill-rule="nonzero" d="M237.716 413.526s-13.275 2.751-13.074 5.136c.201 2.384-.432-6.059-.432-6.059l13.414-.505.092 1.428z"/>
        <path fill="#576B10" fill-rule="nonzero" d="M209.044 236.966s10.712-2.769 20.469 1.12c9.756 3.887-18.109-.326-20.469-1.12z"/>
        <path fill="#FCBDAB" fill-rule="nonzero" d="M225.91 236.884c0 3.343-2.217 6.053-4.955 6.053-2.737 0-4.957-2.71-4.957-6.053v-9.29c0-3.344 2.22-6.055 4.957-6.055 2.737 0 4.956 2.71 4.956 6.054v9.291z"/>
        <path fill="#FFF" fill-rule="nonzero" d="M215.998 239.051s13.537-1.124 15.192 2.874c1.655 3.997 7.675 60.673 7.675 60.673s-16.563 4.393-17.91 2.737c-1.348-1.658-4.957-66.284-4.957-66.284z"/>
        <path fill="#FCBDAB" fill-rule="nonzero" d="M251.522 324.393s1.354 4.672-3.307 11.528c-4.662 6.857-1.318-11.528-1.318-11.528h4.625z"/>
        <path fill="#FCBDAB" fill-rule="nonzero" d="M241.143 249.194s5.027 35.65 7.145 55.618c2.12 19.967 3.662 20.276 3.662 20.276l-5.403 1.85-9.96-50.088 1.905-23.894 2.651-3.762z"/>
        <ellipse cx="225.484" cy="218.614" fill="#FCBDAB" fill-rule="nonzero" rx="13.083" ry="13.624"/>
        <ellipse cx="214.481" cy="212.321" fill="#994D0A" fill-rule="nonzero" rx="11.003" ry="11.02"/>
        <path fill="#994D0A" fill-rule="nonzero" d="M213.491 202.393s7.698-19.318 24.6-3.923c0 0 2.49 5.01 0 7.012-2.489 2.002 5.575-1.002 5.92-1.754.343-.75-1.03 3.339-3.259 4.256-2.232.918 2.526 2.092 2.526 2.092l-6.558 2.908s1.027.218 0 0c-1.028-.217-7.656-5.324-10.179-4.24-2.526 1.084-5.884 3.998-6.175 7.002-.29 3.004-.376 4.255-.376 4.255s-.944-5.258-2.145-4.84c-1.201.417-1.777 8.028-3.065 8.103-1.288.076-3.369-10.273-3.369-10.273v-6.843c0-.167 2.08-3.755 2.08-3.755z"/>
        <path fill="#FFD00B" fill-rule="nonzero" d="M206.215 236.966s19.602.488 27.56 2.085c7.956 1.598 2.948 10.439 4.126 12.795 1.179 2.358 3.847 6.04 2.072 10.755-1.777 4.715 1.613 35.506 3.381 38.157 1.768 2.652-5.305 2.652-5.305 2.652l-10.486-63.859-10.589-.5s6.043 6.46 6.78 10.438c.736 3.978-2.209 13.258-2.8 17.827-.59 4.566 1.473 12.816 2.8 15.91 1.327 3.093.59 20.184.59 20.184s-14.08-30.497-12.494-38.452c1.587-7.956 2.323-10.46.997-15.027-1.326-4.567-8.99-9.723-7.368-12.965"/>
        <path fill="#789820" fill-rule="nonzero" d="M205.255 238.467l-11.713 11.316 8.842 13.26-1.472 3.83s2.651 19.594 2.8 23.131c.148 3.535-3.242 14.88-3.39 15.615-.148.737 13.411 7.81 24.023-2.209 10.61-10.02-7.074-17.385-6.78-26.225.294-8.84 2.738-21.295 2.386-24.824-.452-4.507-9.31-12.744-9.31-12.744l-5.386-1.15zM238.212 242.938l2.931 6.257-2.651 3.762c-.001 0-4.094-2.133-.28-10.02z"/>
        <path fill="#FCBDAB" fill-rule="nonzero" d="M193.541 249.783l-15.326 21.952s15.912 24.41 18.568 27.255c4.127 4.42 4.127-6.63 4.127-6.63l-11.348-19.835 11.348-13.922-7.369-8.82z"/>
        <path fill="#E49D74" fill-rule="nonzero" d="M215.042 411.196s-7.149 24.854-8.703 29.668c-1.553 4.816-.931 9.632-.931 9.632s-14.296 9.631-16.16 9.476c-1.864-.156-8.446.001-1.399-3.418 3.453-1.676 6.527-4.35 7.77-6.99 1.243-2.642 5.075-39.3 5.075-39.3l14.348.932z"/>
        <path fill="#2C1B2A" fill-rule="nonzero" d="M205.5 457.224s.076-6.149-.007-7.132c-.084-.984-14.995 9.476-16.066 9.763-1.071.287-5.437-1.354-3.508-2.626 1.858-1.227-6.626 5.054-6.626 5.054v2.964h4.778s13.182-7.477 15.16-7.611c1.977-.13 2.068 0 4.283 0 1.596 0 1.985-.412 1.985-.412zM226.695 449.409v6.523s2.022 1.957 4.663 1.677c2.64-.278 24.707.028 24.707.028s2.174-.619 0-1.395c-2.177-.776-7.897-3.455-7.897-3.455s-5.311 2.372-8.73 1.594c-3.419-.78-12.276-5.75-12.276-5.75l-.467.778z"/>
        <path fill="#E1270D" fill-rule="nonzero" d="M200.321 305.62s32.099 1.34 43.033-4.862c10.934-6.202.284 112.768.284 112.768s-39.693 2.099-46.032-3.262c-6.34-5.36 2.715-104.645 2.715-104.645z"/>
        <path fill="#FCBDAB" fill-rule="nonzero" d="M200.91 292.36s9.23-5.395 11.83 1.717h-1.522s-3.517-3.853-6.996-.793c0 0 6.438-.547 10.004 2.854 0 0 1.114.103 1.56 2.783 0 0 2.006 1.134.891 1.443-1.114.309-7.354-1.133-8.914-.825-1.559.31-8.913 2.062-10.027.31-1.116-1.752 3.175-7.488 3.175-7.488z"/>
        <ellipse cx="222.182" cy="219.198" fill="#FCBDAB" fill-rule="nonzero" rx="2.264" ry="2.6"/>
        <ellipse cx="215.204" cy="200.437" fill="#994D0A" fill-rule="nonzero" rx="5.19" ry="5.278"/>
        <path fill="#723305" fill-rule="nonzero" d="M222.182 203.23s.547-4.677 6.169-3.094c5.622 1.583-4.253-.145-4.607 3.093-.355 3.238-1.562 0-1.562 0z"/>
        <path fill="#994D0A" fill-rule="nonzero" d="M219.5 220.702s1.347 2.783-.625 5.936c-1.973 3.155-4.394 1.392-4.394 1.392s-1.789-4.267-3.674-6.957c-1.885-2.69 8.693-.37 8.693-.37z"/>
        <path fill="#723305" fill-rule="nonzero" d="M224.967 206.428s4.484-3.84 9.064-2.143c4.58 1.696 2.97 1.134 3.712.252.742-.882.093 2.22-3.99 1.11-4.082-1.11-2.598-1.658-4.454-.218-1.855 1.44-7.475 2.845-4.332.999z"/>
        <path fill="#723305" fill-rule="nonzero" d="M229.319 194.18s5.895 6.586-2.341 9.09c-8.237 2.504 12.177.74 2.34-9.09zM215.998 206.883s5.52 7.379 1.369 12.89c-4.151 5.511 4.778-5.284-1.369-12.89zM233.326 208.274s5.033 1.067 7.33-1.39c2.296-2.459-1.035 4.579-7.33 1.39z"/>
        <path fill="#789820" fill-rule="nonzero" d="M202.24 262.826l-1.33-4.223-.817 1.004z"/>
        <path fill="#576B10" fill-rule="nonzero" d="M201.166 258.29s8.262-5.927 9.027-7.203c.765-1.274-5.61 9.499-6.376 11.219-.766 1.72.564-2.231-2.651-4.015z"/>
        <path fill="#C67F5C" fill-rule="nonzero" d="M213.886 415.205s-13.695 1.045-13.891 2.839c-.197 1.793.549-6.353.549-6.353l13.8 1.927-.458 1.587z"/>
        <path fill="#AF1909" fill-rule="nonzero" d="M202.24 337.453s-3.196 53.964 25.708 70.338c0 0-24.85-35.355-25.708-70.338z"/>
        <path fill="#2C1B2A" fill-rule="nonzero" d="M179.294 462.283s-3.6 4.633 4.778 2.964l-2.815-2.547-1.963-.417zM186.174 457.064l.525.082-1.35 1.025-.59.133c-.001 0 .849-.85 1.415-1.24z"/>
        <path fill="#A1D2DC" fill-rule="nonzero" d="M196.13 141.045l-55.118-2.726.139-2.798 55.116 2.726z"/>
        <path stroke="#110A01" stroke-width=".81" d="M141.074 137.23s-19.416-2.683-4.39 23.08c0 0 15.22 19.275 11.96 36.882 0 0-14.734 19.991-11.496 28.502 3.238 8.51 6.887 31.516-3.094 46.133-9.983 14.619-17.992 26.215-16.74 46"/>
        <path fill="#A1D2DC" fill-rule="nonzero" d="M102.188 401.229l-2.782-.6 56.591-262.17 2.782.6z"/>
        <path fill="#FCA098" fill-rule="nonzero" d="M172.234 137.113c-.358 3.703 2.94 7.051 7.365 7.477l39.504 3.812c4.425.426 8.303-2.23 8.66-5.933.358-3.703-2.94-7.051-7.365-7.478l-39.504-3.81c-4.425-.428-8.302 2.229-8.66 5.932z"/>
        <path fill="#FDC1B6" fill-rule="nonzero" d="M173.245 135.425c-.263 2.727 3.027 5.275 7.349 5.692l38.584 3.723c4.322.416 8.039-1.456 8.303-4.182.263-2.727-3.028-5.275-7.35-5.692l-38.584-3.722c-4.321-.417-8.04 1.455-8.302 4.181z"/>
        <path fill="#262840" fill-rule="nonzero" d="M410.836 246.567h2.402v35.66h-2.402z"/>
        <path fill="#262840" fill-rule="nonzero" d="M409.945 279.292h4.27v126.021h-4.27z"/>
        <g fill="#262840" fill-rule="nonzero">
            <path d="M407.542 399.132h8.987v12.365h-8.987z"/>
            <path d="M409.945 411.495h4.27v39.844h-4.27z"/>
            <path d="M441.53 453.032l3.568-2.344-28.635-42.854-3.568 2.343zM407.467 407.01l3.568 2.346L382.4 452.21l-3.57-2.347z"/>
            <path d="M400.337 422.791h23.4v2.312h-23.4z"/>
        </g>
        <ellipse cx="405.156" cy="202.292" fill="#0BC4FF" fill-rule="nonzero" rx="12.157" ry="12.152"/>
        <ellipse cx="405.156" cy="202.293" fill="#C7FFAB" fill-rule="nonzero" rx="8.731" ry="8.728"/>
        <path fill="#262840" fill-rule="nonzero" d="M379.695 215.259h13.701v23.213h-13.701z"/>
        <path fill="#2E8BE6" fill-rule="nonzero" d="M386.544 223.798s-16.993-9.353-20.55-9.353l-.8 25.186s2.402.621 4.714-.535c2.313-1.156 16.636-8.36 16.636-8.36v-6.938z"/>
        <path fill="#262840" fill-rule="nonzero" d="M354.783 236.696a2.934 2.934 0 0 0 2.935 2.935h6.942a2.934 2.934 0 0 0 2.935-2.935V217.38a2.934 2.934 0 0 0-2.935-2.934h-6.942a2.934 2.934 0 0 0-2.935 2.934v19.317z"/>
        <path fill="#2E8BE6" fill-rule="nonzero" d="M393.396 214.445h43.595v25.185h-43.595z"/>
        <path fill="#565966" fill-rule="nonzero" d="M396.425 218.106h37.009v18.945h-37.009z"/>
        <ellipse cx="434.826" cy="200.77" fill="#2E8BE6" fill-rule="nonzero" rx="13.624" ry="13.62"/>
        <ellipse cx="434.827" cy="200.77" fill="#C7FFAB" fill-rule="nonzero" rx="10.165" ry="10.162"/>
        <ellipse cx="434.99" cy="195.382" fill="#262840" fill-rule="nonzero" rx="1.557" ry="1.557"/>
        <ellipse cx="440.094" cy="200.648" fill="#262840" fill-rule="nonzero" rx="1.557" ry="1.557"/>
        <ellipse cx="434.99" cy="205.259" fill="#262840" fill-rule="nonzero" rx="1.557" ry="1.557"/>
        <ellipse cx="430.205" cy="200.153" fill="#262840" fill-rule="nonzero" rx="1.557" ry="1.557"/>
        <ellipse cx="404.854" cy="198.597" fill="#0BC4FF" fill-rule="nonzero" rx="1.558" ry="1.557"/>
        <ellipse cx="404.854" cy="205.259" fill="#0BC4FF" fill-rule="nonzero" rx="1.558" ry="1.557"/>
        <path fill="#0BC4FF" fill-rule="nonzero" d="M417.758 230.403a2.934 2.934 0 0 0 2.934 2.934h20.305a2.934 2.934 0 0 0 2.935-2.934v-6.674a2.934 2.934 0 0 0-2.935-2.933h-20.305a2.934 2.934 0 0 0-2.934 2.933v6.674z"/>
        <path fill="#2E8BE6" fill-rule="nonzero" d="M421.598 224.576h18.495v4.981h-18.495z"/>
        <path fill="#262840" fill-rule="nonzero" d="M443.932 224.576h4.092v4.981h-4.092z"/>
        <path fill="#2E8BE6" fill-rule="nonzero" d="M453.006 219.529h1.958v15.475h-1.958z"/>
        <path fill="#262840" fill-rule="nonzero" d="M452.65 219.529l-4.626 5.047v4.98l4.982 5.448z"/>
        <path fill="#C7FFAB" fill-rule="nonzero" d="M454.964 233.715a1.289 1.289 0 1 0 2.58 0v-12.54a1.29 1.29 0 0 0-2.58 0v12.54z"/>
        <path fill="#2E8BE6" fill-rule="nonzero" d="M405.764 221.219h2.402v2.579h-2.402zM400.895 221.219h2.401v2.579h-2.401z"/>
        <path fill="#C7FFAB" fill-rule="nonzero" d="M357.719 218.106h7.029v18.41h-7.029z"/>
        <path fill="#262840" fill-rule="nonzero" d="M405.764 239.797h12.545v4.991h-12.545zM408.166 244.788h7.83v3.558h-7.83zM401.564 239.63s-1.087 13.998 10.472 35.084c0 0 11.038 14.98 6.273 42.174 0 0-.697 13.312-5.072 15.812v-3.053s6.12-15.26 4.52-26.634c0 0 .068-13.317-5.722-24.692 0 0-13.5-18.565-11.85-38.692h1.379z"/>
        <g fill-rule="nonzero" transform="translate(345.107 417.611)">
            <path fill="#262840" d="M38.914 2.098a2.494 2.494 0 0 1-1.36 3.255L3.531 19.318a2.496 2.496 0 0 1-3.256-1.36 2.493 2.493 0 0 1 1.36-3.255L35.66.74a2.495 2.495 0 0 1 3.255 1.36z"/>
            <ellipse cx="4.207" cy="16.433" fill="#C7FFAB" rx="1.567" ry="1.508" transform="rotate(-22.333 4.207 16.433)"/>
            <ellipse cx="9.53" cy="14.214" fill="#C7FFAB" rx="1.566" ry="1.507" transform="rotate(-22.328 9.53 14.214)"/>
            <ellipse cx="14.86" cy="12.025" fill="#C7FFAB" rx="1.566" ry="1.509" transform="rotate(-22.328 14.86 12.025)"/>
            <ellipse cx="20.184" cy="9.825" fill="#C7FFAB" rx="1.566" ry="1.508" transform="rotate(-22.31 20.184 9.825)"/>
            <ellipse cx="25.531" cy="7.682" fill="#C7FFAB" rx="1.567" ry="1.508" transform="rotate(-22.333 25.531 7.682)"/>
            <ellipse cx="30.845" cy="5.449" fill="#C7FFAB" rx="1.566" ry="1.508" transform="rotate(-22.31 30.845 5.45)"/>
            <ellipse cx="36.175" cy="3.26" fill="#C7FFAB" rx="1.566" ry="1.508" transform="rotate(-22.31 36.175 3.26)"/>
        </g>
        <path fill="#2E8BE6" fill-rule="nonzero" d="M389.996 444.227v-3.602a2.545 2.545 0 0 0-2.545-2.544h-38.768a2.545 2.545 0 0 0-2.545 2.544v3.628c.112-.016.225-.026.34-.026h43.518z"/>
        <path fill="#262840" fill-rule="nonzero" d="M348.683 467.076h38.768a2.544 2.544 0 0 0 2.545-2.543v-20.306h-43.517c-.116 0-.23.011-.341.026v20.28a2.545 2.545 0 0 0 2.545 2.543z"/>
        <path fill="#0BC4FF" fill-rule="nonzero" d="M348.806 448.519h13.112v12.875h-13.112z"/>
        <path fill="#FFD00B" fill-rule="nonzero" d="M364.702 448.519h21.814v3.745h-21.814zM376.885 455.97c0 .562-.455 1.017-1.015 1.017h-10.152a1.016 1.016 0 0 1 0-2.032h10.152c.56 0 1.015.456 1.015 1.016zM379.437 460.378c0 .561-.55 1.016-1.229 1.016h-12.277c-.679 0-1.23-.455-1.23-1.016 0-.56.551-1.015 1.23-1.015h12.277c.678 0 1.23.454 1.23 1.015z"/>
        <ellipse cx="350.373" cy="441.224" fill="#C7FFAB" fill-rule="nonzero" rx="1.567" ry="1.507"/>
        <ellipse cx="356.135" cy="441.224" fill="#C7FFAB" fill-rule="nonzero" rx="1.567" ry="1.507"/>
        <ellipse cx="361.898" cy="441.224" fill="#C7FFAB" fill-rule="nonzero" rx="1.566" ry="1.507"/>
        <ellipse cx="367.661" cy="441.224" fill="#C7FFAB" fill-rule="nonzero" rx="1.567" ry="1.507"/>
        <ellipse cx="373.424" cy="441.224" fill="#C7FFAB" fill-rule="nonzero" rx="1.566" ry="1.507"/>
        <ellipse cx="379.186" cy="441.224" fill="#C7FFAB" fill-rule="nonzero" rx="1.566" ry="1.507"/>
        <ellipse cx="384.949" cy="441.224" fill="#C7FFAB" fill-rule="nonzero" rx="1.566" ry="1.507"/>
        <path fill="#DD9F90" fill-rule="nonzero" d="M133.143 213.167s-12.6-.8-15.082 1.761c-2.482 2.56-1.753-.97-1.753-.97l2.35-3.137 14.672 1.066-.187 1.28z"/>
        <path fill="#DD9F90" fill-rule="nonzero" d="M113.177 212.367s-3.287 3.096-.563 7.03c0 0 .643 1.694 1.604-.627.961-2.321 3.68-2.967 1.601-5.43-2.08-2.463-1.942-1.846-2.642-.973z"/>
        <path fill="#262840" fill-rule="nonzero" d="M414.929 246.567h31.049v1.381h-31.049z"/>
        <path stroke="#110A01" stroke-width=".81" d="M90.066 446.398c21.39-2.691.026 3.318 11.965-25.483 11.939-28.8 15.626-103.088 15.626-103.088"/>
        <path fill="#576B10" fill-rule="nonzero" d="M205.15 239.708s9.13-1.679 7.25 13.215c-1.878 14.894-2.196 29.492-.99 32.227 1.207 2.735 9.853 3.31 9.545 7.21-.31 3.9 1.094-8.902-7.9-11.662 0 0 2.464-28.975 2.21-32.751-.253-3.777-5.964-11.108-10.115-8.239z"/>
        <path fill="#DD9F90" fill-rule="nonzero" d="M220.31 221.799s.623 9.279 8.813 9.293c0 0 .65.456-3.64 1.146 0 0-7.043-5.237-5.173-10.44zM218.228 227.489s-.763 8.392 2.727 9.969h-4.957l-.134-9.73s1.717.61 2.364-.24zM236.72 212.984s-8.246-2.755-10.066 2.876c-1.82 5.63-.638-4.91-1.685-6.267-1.046-1.358 5.177-2.647 11.75 3.39zM239.712 251.224s1.62 3.558 1.43 11.602c-.188 8.044 5.003 37.172 4.915 38.323-.087 1.152-3.717.983-3.172-1.6.545-2.583-6.144-28.824-4.02-35.44 2.123-6.615.217-10.042-.374-11.153-.59-1.11 1.22-1.732 1.22-1.732z"/>
        <path fill="#576B10" fill-rule="nonzero" d="M227.431 238.467s9.734 12.52 9.155 21.633c-.58 9.113 2.507 41.88 2.507 41.88s2.375.818 4.357-1.055c1.983-1.873-6.495-22.601-3.478-38.324 0 0 2.224-4.437-1.482-9.644 0 0-3.485-3.663-.278-10.02 0 0-1.628-6.534-10.78-4.47z"/>
        <path fill="#AF1909" fill-rule="nonzero" d="M205.711 315.896s25.68-2.554 38.557-11.085c0 0 3.798-3.788.33-4.196 0 0-22.184 6.286-42.214 5.092l-4.834 48.767s6.247-42.537 8.161-38.578z"/>
        <path fill="#DD9F90" fill-rule="nonzero" d="M193.541 250.915s3.529 4.843 1.812 9.8c-1.719 4.958-8.478 12.883-8.478 12.883l2.687-1.072 11.348-13.922-7.37-8.82v1.13h.001zM196.368 284.42s4.073 7.137 3.725 11.088c-.349 3.95.818 3.17.818 3.17v-6.318l-4.543-7.94zM248.288 316.873s2.557 13.782 1.511 16.377c-1.046 2.596-1.598 3.377-1.598 3.377l.087-19.754z"/>
        <path stroke="#110A01" stroke-width=".81" d="M413.238 329.648s-11.122 40.627-5.072 67.6c6.05 26.973-9.507 49.315 0 49.924"/>
        <g fill="#FFF" fill-rule="nonzero">
            <path d="M545.688 310.409v-3.958h1.598c.36 0 .636.019.826.056a1.637 1.637 0 0 1 1.23.96c.12.274.182.588.182.94 0 .301-.041.568-.123.8a1.822 1.822 0 0 1-.317.576c-.13.152-.27.272-.422.359a1.891 1.891 0 0 1-.554.198 3.653 3.653 0 0 1-.745.068h-1.675zm.614-.467h.99c.307 0 .546-.025.72-.073.175-.049.313-.118.417-.205.146-.124.258-.292.34-.502.082-.21.122-.464.122-.762 0-.414-.08-.732-.24-.954a1.156 1.156 0 0 0-.58-.447c-.165-.054-.43-.081-.794-.081h-.975v3.024zM550.472 310.409v-3.958h.614v3.958zM552.177 310.409v-3.958h2.057c.414 0 .728.035.943.107.216.07.387.196.516.377a1 1 0 0 1 .193.596.92.92 0 0 1-.32.71c-.213.192-.542.314-.988.367.163.066.286.132.37.197.18.14.35.316.51.526l.807 1.077h-.772l-.614-.824a7.392 7.392 0 0 0-.443-.545 1.3 1.3 0 0 0-.312-.264.979.979 0 0 0-.28-.106 2.033 2.033 0 0 0-.342-.018h-.712v1.757h-.613zm.614-2.211h1.32c.281 0 .5-.024.659-.075a.697.697 0 0 0 .36-.237.576.576 0 0 0 .123-.355.556.556 0 0 0-.239-.461c-.158-.12-.41-.18-.755-.18h-1.468v1.308zM556.861 310.409v-3.958h3.355v.467h-2.74v1.212h2.566v.464h-2.567v1.347h2.849v.467h-3.463zM564.481 309.02l.614.134c-.128.429-.36.758-.694.984-.335.225-.743.338-1.226.338-.5 0-.907-.087-1.22-.26a1.715 1.715 0 0 1-.716-.755 2.355 2.355 0 0 1-.245-1.061c0-.413.092-.772.277-1.078.185-.308.447-.54.788-.7.341-.159.716-.239 1.125-.239.464 0 .855.101 1.17.303.318.2.538.484.662.85l-.604.122c-.108-.288-.264-.498-.469-.63-.205-.13-.461-.196-.772-.196-.356 0-.654.073-.894.22-.24.145-.408.34-.505.586a2.049 2.049 0 0 0-.146.76c0 .336.058.63.173.881.115.252.293.439.536.563.243.124.506.185.789.185.344 0 .635-.084.873-.253.238-.17.4-.42.484-.753zM567.032 310.409v-3.491h-1.53v-.467h3.678v.467h-1.535v3.49zM569.506 308.481c0-.658.207-1.171.62-1.542.415-.372.948-.557 1.603-.557.427 0 .814.086 1.158.261.344.174.606.418.787.73.18.312.27.666.27 1.063 0 .4-.095.76-.285 1.076-.19.317-.458.558-.807.72a2.63 2.63 0 0 1-1.127.245c-.436 0-.827-.09-1.17-.27a1.876 1.876 0 0 1-.782-.737 1.966 1.966 0 0 1-.267-.989zm.633.009c0 .476.15.852.451 1.127.3.274.678.411 1.131.411.462 0 .843-.138 1.14-.415.299-.278.449-.67.449-1.18 0-.322-.064-.604-.191-.843a1.33 1.33 0 0 0-.56-.559 1.72 1.72 0 0 0-.827-.198c-.434 0-.809.126-1.122.382-.314.253-.47.678-.47 1.275zM574.744 310.409v-3.958h2.057c.414 0 .727.035.943.107.215.07.387.196.516.377a1 1 0 0 1 .192.596.92.92 0 0 1-.32.71c-.213.192-.542.314-.987.367.162.066.286.132.37.197.18.14.35.316.51.526l.807 1.077h-.772l-.615-.824a7.392 7.392 0 0 0-.443-.545 1.3 1.3 0 0 0-.312-.264.979.979 0 0 0-.28-.106 2.033 2.033 0 0 0-.342-.018h-.712v1.757h-.612zm.614-2.211h1.32c.28 0 .5-.024.658-.075a.697.697 0 0 0 .36-.237.576.576 0 0 0 .124-.355.556.556 0 0 0-.24-.461c-.158-.12-.41-.18-.754-.18h-1.469v1.308z"/>
        </g>
        <path fill="#2E8BE6" fill-rule="nonzero" d="M52.894 436.058l-41.4 15.19c-1.05-1.83-1.932-3.95-2.565-6.294a28.46 28.46 0 0 1-1.002-7.776l40.886-14.364 4.08 13.244zM19.282 410.62l-2.62 2.583 7.676 11.216 2.62-2.586z"/>
        <path fill="#262840" fill-rule="nonzero" d="M18.41 446.83l.027.037-2.547 2.512c-.972.96-2.667.412-3.786-1.224-1.119-1.634-1.238-3.736-.266-4.696l2.279-2.248c.972-.958 2.667-.41 3.786 1.223 1.015 1.482 1.203 3.345.507 4.395z"/>
        <path fill="#2E8BE6" fill-rule="nonzero" d="M56.955 449.978l-5.974-4.125s5.095-3.436 6.077-4.722l8.685 4.948-8.788 3.9zM60.356 432.111l6.558-1.979-3.244-12.518-6.472 1.894z"/>
        <path fill="#262840" fill-rule="nonzero" d="M51.196 413.682l3.3-9.474-8.31 2.152-3.607 8.397z"/>
        <path fill="#0BC4FF" fill-rule="nonzero" d="M55.764 445.374L23.117 457.91a6.197 6.197 0 0 1-3.2.353c-3.061-.454-6.14-3.042-8.423-7.016l41.399-15.19 2.871 9.317z"/>
        <path fill="#262840" fill-rule="nonzero" d="M14.08 424.463l31.489-12.173 3.243 10.525L7.926 437.18c.084-6.145 2.347-11.233 6.154-12.716z"/>
        <path fill="#FFD00B" fill-rule="nonzero" d="M26.029 438.085c-.448-.655-1.348-.653-2.012.002-.664.656-.84 1.717-.393 2.37.448.654 1.348.653 2.013-.002.663-.656.839-1.717.392-2.37zM32.926 435.245c-.447-.655-1.349-.652-2.012.002-.664.655-.84 1.717-.392 2.37.447.655 1.348.653 2.011-.002.665-.655.84-1.717.393-2.37zM15.426 444.877c-1.119-1.634-2.814-2.181-3.786-1.222-.972.959-.854 3.062.265 4.697 1.118 1.636 2.814 2.182 3.786 1.224.973-.96.855-3.063-.265-4.7z"/>
        <path fill="#262840" fill-rule="nonzero" d="M14.482 445.81c-.448-.654-1.175-.823-1.626-.38-.45.446-.453 1.335-.006 1.989.447.654 1.175.824 1.626.379.451-.444.454-1.335.006-1.988zM4.073 423.033l-1.288 1.272 14.517 21.212 1.288-1.27z"/>
        <path fill="#262840" fill-rule="nonzero" d="M19.017 408.29L3.428 423.667l1.06 1.548 15.588-15.38z"/>
        <path fill="#262840" fill-rule="nonzero" d="M19.017 408.29l-1.289 1.27 12.02 17.561 1.287-1.271z"/>
        <path fill="#2E8BE6" fill-rule="nonzero" d="M2.785 424.305l-2.619 2.584L8.9 439.65l2.62-2.585z"/>
        <path fill="#262840" fill-rule="nonzero" d="M59.758 425.246c-2.496-9.236-8.848-15.036-14.19-12.956-5.34 2.079-7.645 11.253-5.15 20.49 2.496 9.236 8.848 15.037 14.188 12.959 5.341-2.082 7.648-11.256 5.152-20.493z"/>
        <path fill="#F3F4FF" fill-rule="nonzero" stroke="#262840" stroke-width=".81" d="M58.036 426.467c-1.975-7.307-7-11.896-11.226-10.252-4.226 1.646-6.05 8.904-4.076 16.213 1.975 7.306 7 11.898 11.226 10.252 4.225-1.647 6.05-8.905 4.076-16.213z"/>
        <g fill-rule="nonzero" transform="translate(47.797 399.795)">
            <path fill="#8AD6A9" d="M47.051 48.236c0 6.87-5.57 12.44-12.443 12.44H13.089c-6.871 0-12.443-5.57-12.443-12.44V13.042C.646 6.172 6.218.602 13.09.602h21.519c6.872 0 12.443 5.57 12.443 12.44v35.194z"/>
            <ellipse cx="15.113" cy="13.617" fill="#2E8BE6" rx="6.91" ry="6.908"/>
            <ellipse cx="23.047" cy="38.467" fill="#2E8BE6" rx="13.433" ry="13.429"/>
            <ellipse cx="22.882" cy="37.594" fill="#262840" rx="4.891" ry="4.89"/>
            <ellipse cx="31.5" cy="13.617" fill="#2E8BE6" rx="4.891" ry="4.89"/>
        </g>
        <path fill="#FCBDAB" fill-rule="nonzero" d="M120.237 264.702s6.813-4.303 9.754-3.421c2.94.882 6.027 2.803 6.027 2.803v5.72l-5.145 1.177-4.782-.883-2.195 1.506"/>
        <path fill="#DD9F90" fill-rule="nonzero" d="M124.995 269.914s9.737-5.518 11.023-3.531c1.287 1.986 0 3.421 0 3.421s-5.348 2.34-11.023.11z"/>
        <g stroke-width=".5" transform="translate(559.787 432.998)">
            <path fill="#FCA306" fill-rule="nonzero" stroke="#0C110E" d="M41.877 10.793c-.64 4.962-9.797 8.918-20.75 8.918-11.37 0-20.425-4.237-20.425-9.465L.539 14.82c0 5.227 9.217 9.465 20.587 9.465 11.026 0 20.028-3.986 20.563-8.994v-.003c.017-.155.025-.312.025-.467 0-.167.046-.354.027-.518l.136-3.51z"/>
            <ellipse cx="21.29" cy="10.245" fill="#FFD00B" fill-rule="nonzero" stroke="#13261B" rx="20.588" ry="9.465"/>
            <ellipse cx="21.29" cy="10.245" fill="#FFD00B" fill-rule="nonzero" stroke="#13261B" rx="17" ry="7.379"/>
            <g stroke="#0C110E">
                <path d="M12.79 18.898l.003 4.578c.907.186 1.849.341 2.819.464l-.003-4.574a38.434 38.434 0 0 1-2.818-.468z"/>
                <path d="M10.554 18.357l.003 4.587c.719.196 1.466.375 2.236.532l-.002-4.578c-.772-.16-1.52-.34-2.237-.54zM17.845 19.59l.003 4.574c.92.068 1.86.108 2.818.118l-.002-4.573a44.897 44.897 0 0 1-2.819-.119zM2.681 14.33l.003 4.699c.764.706 1.712 1.362 2.818 1.954L5.5 16.356c-1.116-.614-2.067-1.294-2.819-2.027z"/>
                <path d="M.702 10.245L.539 14.82c0 1.511.772 2.942 2.144 4.209l-.002-4.7C1.41 13.093.7 11.708.7 10.245zM21.126 19.711c-.155 0-.309 0-.462-.002l.002 4.573.46.003c.598 0 1.19-.013 1.776-.036l-.003-4.574c-.584.024-1.177.036-1.773.036zM5.5 16.356l.002 4.627c.688.368 1.436.711 2.237 1.027l-.002-4.602A20.486 20.486 0 0 1 5.5 16.356z"/>
                <path d="M7.737 17.408l.002 4.602a28.03 28.03 0 0 0 2.818.934l-.003-4.587a27.451 27.451 0 0 1-2.817-.949zM15.61 19.366l.002 4.574c.73.094 1.476.168 2.236.224l-.002-4.574a40.87 40.87 0 0 1-2.236-.224zM38.058 15.707l.003 4.496c1.232-.818 2.19-1.729 2.816-2.706l-.002-4.316c-.66.91-1.617 1.76-2.817 2.526z"/>
                <path d="M35.823 16.911l.003 4.535c.82-.384 1.568-.8 2.235-1.243l-.002-4.496a18.3 18.3 0 0 1-2.236 1.204z"/>
                <path d="M33.006 17.992l.003 4.558a24.666 24.666 0 0 0 2.817-1.104l-.003-4.535c-.868.396-1.81.759-2.817 1.081zM22.9 19.675l.003 4.574c.96-.038 1.9-.105 2.817-.2l-.002-4.575c-.92.097-1.861.165-2.819.201zM40.875 13.18l.002 4.317c.452-.705.73-1.444.812-2.207v-.003c.017-.155.025-.312.025-.468 0-.167.046-.354.027-.517l.136-3.51c-.105.83-.451 1.63-1.002 2.388z"/>
                <path d="M25.717 19.474l.002 4.574a40.85 40.85 0 0 0 2.236-.297l-.002-4.572c-.73.118-1.475.216-2.236.295z"/>
                <path d="M27.953 19.18l.002 4.572a36.106 36.106 0 0 0 2.819-.568l-.004-4.567c-.903.217-1.844.406-2.817.562z"/>
                <path d="M30.77 18.617l.003 4.566a31.18 31.18 0 0 0 2.236-.633l-.003-4.558c-.715.229-1.461.438-2.236.625z"/>
            </g>
        </g>
        <g stroke-width=".5" transform="translate(559.787 427.33)">
            <path fill="#FCA306" fill-rule="nonzero" stroke="#0C110E" d="M41.877 10.129c-.64 4.962-9.797 8.92-20.75 8.92C9.756 19.048.701 14.81.701 9.582l-.163 4.573c0 5.227 9.217 9.465 20.587 9.465 11.026 0 20.028-3.985 20.563-8.993v-.003c.017-.156.025-.312.025-.468 0-.166.046-.353.027-.518l.136-3.51z"/>
            <ellipse cx="21.29" cy="9.582" fill="#FFD00B" fill-rule="nonzero" stroke="#13261B" rx="20.588" ry="9.465"/>
            <ellipse cx="21.29" cy="9.582" fill="#FFD00B" fill-rule="nonzero" stroke="#13261B" rx="17" ry="7.378"/>
            <g stroke="#0C110E">
                <path d="M12.79 18.234l.003 4.58c.907.184 1.849.34 2.819.462l-.003-4.574a38.429 38.429 0 0 1-2.818-.468z"/>
                <path d="M10.554 17.693l.003 4.586c.719.198 1.466.377 2.236.534l-.002-4.58c-.772-.159-1.52-.339-2.237-.54zM17.845 18.927l.003 4.573c.92.068 1.86.108 2.818.118l-.002-4.572a45.52 45.52 0 0 1-2.819-.12zM2.681 13.665l.003 4.7c.764.706 1.712 1.362 2.818 1.954L5.5 15.693c-1.116-.614-2.067-1.295-2.819-2.028zM.702 9.582l-.163 4.573c0 1.512.772 2.942 2.144 4.21l-.002-4.7C1.41 12.428.7 11.044.7 9.581z"/>
                <path d="M21.126 19.048l-.462-.002.002 4.572a43.58 43.58 0 0 0 2.236-.032l-.003-4.573c-.584.021-1.177.035-1.773.035zM5.5 15.693l.002 4.626c.688.368 1.436.712 2.237 1.028l-.002-4.602A20.791 20.791 0 0 1 5.5 15.693z"/>
                <path d="M7.737 16.745l.002 4.602c.879.346 1.821.658 2.818.932l-.003-4.586a27.65 27.65 0 0 1-2.817-.948zM15.61 18.702l.002 4.574c.73.094 1.476.169 2.236.224l-.002-4.573a41.685 41.685 0 0 1-2.236-.225zM38.058 15.042l.003 4.497c1.232-.818 2.19-1.73 2.816-2.706l-.002-4.316c-.66.91-1.617 1.76-2.817 2.525z"/>
                <path d="M35.823 16.248l.003 4.535c.82-.385 1.568-.8 2.235-1.243l-.002-4.497c-.673.429-1.42.832-2.236 1.205z"/>
                <path d="M33.006 17.327l.003 4.558a24.818 24.818 0 0 0 2.817-1.103l-.003-4.535c-.868.397-1.81.759-2.817 1.08zM22.9 19.013l.003 4.573c.96-.038 1.9-.106 2.817-.202l-.002-4.573c-.92.096-1.861.164-2.819.202zM40.875 12.517l.002 4.316c.452-.704.73-1.443.812-2.206v-.004c.017-.155.025-.312.025-.468 0-.166.046-.353.027-.517l.136-3.51c-.105.83-.451 1.63-1.002 2.389z"/>
                <path d="M25.717 18.81l.002 4.574c.763-.08 1.509-.179 2.236-.297l-.002-4.572c-.73.118-1.475.216-2.236.296z"/>
                <path d="M27.953 18.515l.002 4.572a36.11 36.11 0 0 0 2.819-.567l-.004-4.567c-.903.218-1.844.406-2.817.562z"/>
                <path d="M30.77 17.953l.003 4.567c.776-.19 1.523-.402 2.236-.634l-.003-4.558c-.715.228-1.461.438-2.236.625z"/>
            </g>
        </g>
        <g stroke-width=".5" transform="translate(567.888 420.04)">
            <path fill="#FCA306" fill-rule="nonzero" stroke="#0C110E" d="M41.581 10.606c-.639 4.962-9.796 8.918-20.75 8.918C9.46 19.524.405 15.287.405 10.06l-.163 4.574c0 5.227 9.217 9.465 20.587 9.465 11.027 0 20.028-3.986 20.563-8.994v-.003c.017-.155.026-.312.026-.467 0-.167.045-.354.026-.518l.136-3.51z"/>
            <ellipse cx="20.994" cy="10.058" fill="#FFD00B" fill-rule="nonzero" stroke="#13261B" rx="20.588" ry="9.465"/>
            <ellipse cx="20.994" cy="10.058" fill="#FFD00B" fill-rule="nonzero" stroke="#13261B" rx="17" ry="7.379"/>
            <g stroke="#0C110E">
                <path d="M12.495 18.71l.003 4.58c.906.185 1.848.34 2.818.463l-.002-4.574a38.872 38.872 0 0 1-2.819-.468z"/>
                <path d="M10.258 18.17l.004 4.586c.718.197 1.465.376 2.236.533l-.003-4.578c-.772-.16-1.519-.34-2.237-.54zM17.55 19.403l.002 4.574c.921.068 1.86.108 2.818.118l-.002-4.573a44.897 44.897 0 0 1-2.819-.12zM2.385 14.142l.002 4.7c.764.706 1.713 1.362 2.819 1.954l-.003-4.627c-1.115-.614-2.065-1.295-2.818-2.027z"/>
                <path d="M.406 10.058l-.163 4.574c0 1.511.772 2.942 2.144 4.209l-.002-4.7c-1.27-1.235-1.98-2.62-1.98-4.083zM20.83 19.524l-.462-.003.002 4.573.46.003c.598 0 1.191-.013 1.776-.036l-.003-4.574c-.584.024-1.176.037-1.773.037zM5.204 16.17l.003 4.626c.687.368 1.435.71 2.236 1.027l-.002-4.602a20.565 20.565 0 0 1-2.237-1.052z"/>
                <path d="M7.44 17.221l.003 4.602a28.03 28.03 0 0 0 2.819.933l-.004-4.586a27.649 27.649 0 0 1-2.817-.949zM15.314 19.179l.002 4.574c.73.094 1.475.168 2.236.224l-.003-4.574c-.76-.056-1.506-.13-2.235-.224zM37.763 15.519l.002 4.496c1.232-.818 2.19-1.729 2.817-2.706l-.003-4.316c-.66.91-1.617 1.76-2.816 2.526z"/>
                <path d="M35.527 16.723l.003 4.535c.819-.384 1.567-.799 2.235-1.243l-.002-4.496c-.673.43-1.42.832-2.236 1.204z"/>
                <path d="M32.71 17.804l.003 4.558a24.666 24.666 0 0 0 2.818-1.104l-.004-4.535c-.867.397-1.81.76-2.817 1.081zM22.603 19.487l.003 4.574c.96-.038 1.9-.105 2.818-.2l-.003-4.575c-.92.097-1.86.166-2.818.201zM40.58 12.993l.002 4.316c.45-.704.729-1.443.811-2.206v-.004c.017-.154.026-.311.026-.467 0-.167.045-.354.026-.517l.136-3.51c-.106.828-.45 1.628-1.002 2.388z"/>
                <path d="M25.421 19.286l.003 4.574a40.85 40.85 0 0 0 2.236-.297l-.003-4.572c-.729.119-1.476.217-2.236.295z"/>
                <path d="M27.657 18.992l.003 4.572a36.106 36.106 0 0 0 2.818-.568l-.003-4.566c-.904.217-1.845.406-2.818.562z"/>
                <path d="M30.474 18.43l.003 4.566a31.18 31.18 0 0 0 2.236-.633l-.003-4.558c-.715.228-1.46.437-2.236.625z"/>
            </g>
        </g>
        <g stroke-width=".5" transform="translate(567.888 413.562)">
            <path fill="#FCA306" fill-rule="nonzero" stroke="#0C110E" d="M41.581 10.75c-.639 4.963-9.796 8.92-20.75 8.92C9.46 19.67.405 15.432.405 10.205l-.163 4.573c0 5.227 9.217 9.465 20.587 9.465 11.027 0 20.028-3.985 20.563-8.993v-.003c.017-.156.026-.312.026-.468 0-.166.045-.353.026-.518l.136-3.51z"/>
            <ellipse cx="20.994" cy="10.205" fill="#FFD00B" fill-rule="nonzero" stroke="#13261B" rx="20.588" ry="9.465"/>
            <ellipse cx="20.994" cy="10.205" fill="#FFD00B" fill-rule="nonzero" stroke="#13261B" rx="17" ry="7.378"/>
            <g stroke="#0C110E">
                <path d="M12.495 18.855l.003 4.58c.906.185 1.848.34 2.818.463l-.002-4.574a37.582 37.582 0 0 1-2.819-.469z"/>
                <path d="M10.258 18.315l.004 4.586c.718.198 1.465.377 2.236.534l-.003-4.58a32.884 32.884 0 0 1-2.237-.54zM17.55 19.55l.002 4.573c.921.068 1.86.108 2.818.118l-.002-4.572a46.16 46.16 0 0 1-2.819-.12zM2.385 14.288l.002 4.7c.764.706 1.713 1.362 2.819 1.954l-.003-4.626c-1.115-.614-2.065-1.295-2.818-2.028z"/>
                <path d="M.406 10.205l-.163 4.573c0 1.512.772 2.941 2.144 4.21l-.002-4.7c-1.27-1.237-1.98-2.621-1.98-4.083zM20.83 19.67l-.462-.002.002 4.572a43.576 43.576 0 0 0 2.236-.032l-.003-4.573c-.584.021-1.176.035-1.773.035zM5.204 16.315l.003 4.626c.687.368 1.435.712 2.236 1.028l-.002-4.602a20.565 20.565 0 0 1-2.237-1.052z"/>
                <path d="M7.44 17.367l.003 4.602c.88.346 1.821.658 2.819.932l-.004-4.586a27.453 27.453 0 0 1-2.817-.948zM15.314 19.324l.002 4.574c.73.093 1.475.169 2.236.224l-.003-4.573c-.76-.056-1.506-.13-2.235-.225zM37.763 15.665l.002 4.497c1.232-.818 2.19-1.73 2.817-2.706l-.003-4.316c-.66.91-1.617 1.759-2.816 2.525zM35.527 16.87l.003 4.535c.819-.385 1.567-.8 2.235-1.243l-.002-4.497c-.673.43-1.42.832-2.236 1.205z"/>
                <path d="M32.71 17.95l.003 4.558a24.818 24.818 0 0 0 2.818-1.103l-.004-4.535c-.867.396-1.81.759-2.817 1.08zM22.603 19.635l.003 4.573c.96-.038 1.9-.106 2.818-.202l-.003-4.573c-.92.096-1.86.163-2.818.202zM40.58 13.14l.002 4.316c.45-.704.729-1.443.811-2.207v-.003c.017-.155.026-.312.026-.468 0-.166.045-.353.026-.518l.136-3.51c-.106.83-.45 1.63-1.002 2.39z"/>
                <path d="M25.421 19.433l.003 4.573c.762-.08 1.508-.179 2.236-.297l-.003-4.572c-.729.118-1.476.216-2.236.296z"/>
                <path d="M27.657 19.138l.003 4.572a36.11 36.11 0 0 0 2.818-.567l-.003-4.568c-.904.218-1.845.406-2.818.563z"/>
                <path d="M30.474 18.575l.003 4.568c.776-.19 1.523-.402 2.236-.634l-.003-4.558c-.715.227-1.46.437-2.236.624z"/>
            </g>
        </g>
        <g stroke-width=".5" transform="translate(568.698 409.513)">
            <path fill="#FCA306" fill-rule="nonzero" stroke="#0C110E" d="M41.78 10.297c-.639 4.963-9.796 8.919-20.75 8.919C9.66 19.216.605 14.978.605 9.75l-.163 4.574c0 5.227 9.218 9.466 20.588 9.466 11.026 0 20.027-3.986 20.563-8.994v-.003c.017-.155.025-.312.025-.468 0-.167.045-.354.027-.517l.136-3.51z"/>
            <ellipse cx="21.193" cy="9.75" fill="#FFD00B" fill-rule="nonzero" stroke="#13261B" rx="20.588" ry="9.465"/>
            <ellipse cx="21.193" cy="9.75" fill="#FFD00B" fill-rule="nonzero" stroke="#13261B" rx="17" ry="7.379"/>
            <g stroke="#0C110E">
                <path d="M12.694 18.402l.003 4.579c.906.185 1.849.34 2.818.463l-.002-4.574a38.872 38.872 0 0 1-2.819-.468z"/>
                <path d="M10.458 17.862l.003 4.586c.719.197 1.465.376 2.236.533l-.003-4.579c-.772-.16-1.519-.34-2.236-.54zM17.749 19.094l.002 4.574c.921.068 1.861.108 2.819.119l-.003-4.574a44.897 44.897 0 0 1-2.818-.119zM2.584 13.834l.003 4.7c.764.705 1.712 1.361 2.818 1.953l-.002-4.626c-1.116-.614-2.066-1.295-2.819-2.027z"/>
                <path d="M.605 9.75l-.163 4.574c0 1.51.772 2.941 2.145 4.208l-.003-4.7C1.314 12.598.605 11.213.605 9.75zM21.03 19.216c-.155 0-.309-.001-.463-.003l.003 4.574.46.002c.598 0 1.19-.013 1.775-.036l-.003-4.574c-.584.024-1.176.037-1.772.037zM5.403 15.86l.003 4.627c.688.368 1.435.711 2.237 1.027l-.003-4.601a20.565 20.565 0 0 1-2.237-1.052z"/>
                <path d="M7.64 16.913l.003 4.601a28.03 28.03 0 0 0 2.818.934l-.003-4.586a27.649 27.649 0 0 1-2.818-.95zM15.513 18.87l.002 4.574c.73.094 1.475.168 2.236.224l-.002-4.574c-.761-.055-1.507-.13-2.236-.224zM37.962 15.21l.002 4.497c1.232-.818 2.19-1.73 2.817-2.706l-.002-4.316c-.661.91-1.617 1.76-2.817 2.525z"/>
                <path d="M35.727 16.415l.003 4.536c.819-.384 1.568-.8 2.235-1.244l-.002-4.496c-.674.43-1.421.832-2.236 1.204z"/>
                <path d="M32.91 17.496l.002 4.558a24.666 24.666 0 0 0 2.818-1.104l-.003-4.535c-.868.396-1.81.76-2.818 1.08zM22.802 19.18l.003 4.573c.96-.038 1.901-.105 2.818-.2l-.002-4.574c-.92.096-1.86.164-2.819.2zM40.779 12.685L40.78 17c.451-.705.73-1.443.812-2.207v-.003c.017-.155.025-.312.025-.467 0-.167.045-.354.027-.518l.136-3.51c-.106.829-.452 1.63-1.002 2.389z"/>
                <path d="M25.62 18.979l.003 4.574a40.85 40.85 0 0 0 2.236-.298l-.003-4.572c-.729.118-1.476.216-2.235.296z"/>
                <path d="M27.856 18.683l.003 4.572a36.106 36.106 0 0 0 2.818-.567l-.003-4.567a36.8 36.8 0 0 1-2.818.562z"/>
                <path d="M30.673 18.121l.003 4.567a31.18 31.18 0 0 0 2.236-.634l-.003-4.557c-.714.228-1.46.437-2.236.624z"/>
            </g>
        </g>
        <g stroke-width=".5" transform="translate(568.698 403.034)">
            <path fill="#FCA306" fill-rule="nonzero" stroke="#0C110E" d="M41.78 10.443c-.639 4.963-9.796 8.92-20.75 8.92C9.66 19.362.605 15.124.605 9.896L.442 14.47c0 5.228 9.218 9.466 20.588 9.466 11.026 0 20.027-3.986 20.563-8.994v-.003c.017-.155.025-.312.025-.468 0-.166.045-.353.027-.517l.136-3.511z"/>
            <ellipse cx="21.193" cy="9.896" fill="#FFD00B" fill-rule="nonzero" stroke="#13261B" rx="20.588" ry="9.465"/>
            <ellipse cx="21.193" cy="9.896" fill="#FFD00B" fill-rule="nonzero" stroke="#13261B" rx="17" ry="7.378"/>
            <g stroke="#0C110E">
                <path d="M12.694 18.547l.003 4.58c.906.184 1.849.34 2.818.463l-.002-4.574a37.582 37.582 0 0 1-2.819-.47zM10.458 18.007l.003 4.586c.719.197 1.465.376 2.236.534l-.003-4.58a32.884 32.884 0 0 1-2.236-.54zM17.749 19.241l.002 4.573c.921.068 1.861.109 2.819.118l-.003-4.572a45.52 45.52 0 0 1-2.818-.119zM2.584 13.98l.003 4.7c.764.705 1.712 1.361 2.818 1.953l-.002-4.626c-1.116-.614-2.066-1.295-2.819-2.028z"/>
                <path d="M.605 9.896L.442 14.47c0 1.512.772 2.942 2.145 4.21l-.003-4.7C1.314 12.743.605 11.358.605 9.896zM21.03 19.362c-.155 0-.309-.002-.463-.003l.003 4.573a43.58 43.58 0 0 0 2.235-.033l-.003-4.573c-.584.023-1.176.036-1.772.036zM5.403 16.007l.003 4.626c.688.369 1.435.712 2.237 1.028l-.003-4.602a20.874 20.874 0 0 1-2.237-1.052zM7.64 17.058l.003 4.602c.879.347 1.82.658 2.818.933l-.003-4.586a27.258 27.258 0 0 1-2.818-.949zM15.513 19.016l.002 4.574c.73.093 1.475.168 2.236.223l-.002-4.573c-.761-.056-1.507-.13-2.236-.224zM37.962 15.356l.002 4.497c1.232-.818 2.19-1.73 2.817-2.705l-.002-4.317c-.661.91-1.617 1.76-2.817 2.525z"/>
                <path d="M35.727 16.561l.003 4.535c.819-.384 1.568-.8 2.235-1.243l-.002-4.497c-.674.43-1.421.833-2.236 1.205z"/>
                <path d="M32.91 17.642l.002 4.557a24.818 24.818 0 0 0 2.818-1.103l-.003-4.535c-.868.396-1.81.759-2.818 1.08zM22.802 19.326l.003 4.573c.96-.038 1.901-.105 2.818-.201l-.002-4.574c-.92.097-1.86.164-2.819.202zM40.779 12.831l.002 4.317c.451-.705.73-1.444.812-2.207v-.004c.017-.155.025-.311.025-.468 0-.166.045-.353.027-.517l.136-3.51c-.106.83-.452 1.63-1.002 2.39z"/>
                <path d="M25.62 19.124l.003 4.574c.762-.08 1.508-.18 2.236-.298l-.003-4.571c-.729.118-1.476.216-2.235.295z"/>
                <path d="M27.856 18.83l.003 4.571a36.11 36.11 0 0 0 2.818-.567l-.003-4.567c-.903.218-1.845.406-2.818.563z"/>
                <path d="M30.673 18.267l.003 4.567c.777-.19 1.523-.401 2.236-.634l-.003-4.558c-.714.228-1.46.438-2.236.625z"/>
            </g>
        </g>
        <g stroke-width=".5" transform="translate(562.217 393.316)">
            <path fill="#FCA306" fill-rule="nonzero" stroke="#0C110E" d="M41.4 10.134c-.64 4.963-9.797 8.92-20.751 8.92-11.37 0-20.425-4.238-20.425-9.466L.06 14.16c0 5.227 9.218 9.465 20.588 9.465 11.026 0 20.027-3.986 20.562-8.993v-.005c.017-.154.025-.31.025-.467 0-.166.046-.353.027-.518l.137-3.509z"/>
            <ellipse cx="20.811" cy="9.588" fill="#FFD00B" fill-rule="nonzero" stroke="#13261B" rx="20.588" ry="9.465"/>
            <ellipse cx="20.812" cy="9.588" fill="#FFD00B" fill-rule="nonzero" stroke="#13261B" rx="17" ry="7.379"/>
            <g stroke="#0C110E">
                <path d="M12.313 18.238l.002 4.58c.907.185 1.848.34 2.819.464l-.004-4.576a37.702 37.702 0 0 1-2.817-.468zM10.076 17.699l.003 4.586a34.16 34.16 0 0 0 2.236.533l-.002-4.58a32.656 32.656 0 0 1-2.237-.539zM17.367 18.932l.003 4.574c.92.068 1.861.108 2.819.118l-.003-4.573c-.959-.01-1.9-.05-2.819-.119zM2.203 13.67l.002 4.701c.764.706 1.714 1.362 2.818 1.954l-.002-4.627c-1.115-.613-2.067-1.294-2.818-2.027zM.223 9.588L.06 14.16c0 1.512.773 2.942 2.144 4.21l-.002-4.7C.932 12.433.222 11.05.222 9.587z"/>
                <path d="M20.648 19.052c-.155 0-.31 0-.463-.002l.003 4.573a47.494 47.494 0 0 0 2.235-.032l-.002-4.574c-.585.024-1.176.035-1.773.035zM5.021 15.698l.002 4.627c.69.368 1.436.711 2.238 1.027l-.002-4.602a20.652 20.652 0 0 1-2.238-1.052zM7.259 16.75l.002 4.602c.878.347 1.821.659 2.818.934l-.002-4.586c-1-.281-1.943-.599-2.818-.95zM15.131 18.707l.003 4.576c.73.092 1.476.168 2.236.223l-.003-4.574a41.025 41.025 0 0 1-2.236-.225zM37.58 15.048l.003 4.497c1.232-.82 2.191-1.73 2.817-2.707l-.003-4.315c-.661.909-1.618 1.76-2.817 2.525zM35.345 16.253l.003 4.535a17.3 17.3 0 0 0 2.235-1.243l-.003-4.497c-.672.429-1.42.832-2.235 1.205z"/>
                <path d="M32.527 17.333l.003 4.558a24.608 24.608 0 0 0 2.818-1.103l-.003-4.535c-.867.397-1.81.758-2.818 1.08zM22.421 19.017l.003 4.574c.96-.038 1.9-.106 2.818-.203l-.002-4.572c-.92.097-1.862.164-2.819.2zM40.396 12.523l.003 4.315c.452-.704.73-1.442.811-2.205v-.005c.017-.154.025-.31.025-.467 0-.166.047-.353.027-.518l.137-3.51c-.106.83-.452 1.63-1.003 2.39z"/>
                <path d="M25.239 18.816l.002 4.572c.762-.08 1.508-.179 2.236-.295l-.002-4.573c-.728.118-1.475.217-2.236.296z"/>
                <path d="M27.475 18.521l.002 4.572a36.005 36.005 0 0 0 2.818-.568l-.003-4.567c-.903.218-1.844.408-2.817.563z"/>
                <path d="M30.292 17.958l.003 4.567c.776-.19 1.523-.401 2.236-.633l-.003-4.558c-.714.229-1.461.436-2.236.624z"/>
            </g>
        </g>
        <path fill="#FCA306" fill-rule="nonzero" stroke="#0C110E" stroke-width=".5" d="M608.895 394.479c-.639 4.963-9.797 8.92-20.751 8.92-11.37 0-20.424-4.238-20.424-9.466l-.164 4.573c0 5.228 9.218 9.466 20.588 9.466 11.026 0 20.027-3.986 20.563-8.994v-.004c.017-.155.025-.311.025-.468 0-.166.045-.352.026-.516l.137-3.511z"/>
        <ellipse cx="588.307" cy="393.932" fill="#FFD00B" fill-rule="nonzero" stroke="#13261B" stroke-width=".5" rx="20.587" ry="9.465"/>
        <ellipse cx="588.308" cy="393.932" fill="#FFD00B" fill-rule="nonzero" stroke="#13261B" stroke-width=".5" rx="17.001" ry="7.378"/>
        <g stroke="#0C110E" stroke-width=".5">
            <path d="M579.809 402.583l.002 4.58c.907.185 1.849.34 2.818.464l-.002-4.576a37.176 37.176 0 0 1-2.818-.468z"/>
            <path d="M577.572 402.043l.003 4.586c.719.198 1.465.377 2.236.534l-.002-4.58a33 33 0 0 1-2.237-.54zM584.863 403.277l.003 4.574c.92.067 1.86.108 2.818.118l-.004-4.573a44.897 44.897 0 0 1-2.817-.119zM569.698 398.016l.003 4.7c.764.705 1.712 1.362 2.818 1.954l-.002-4.627c-1.115-.613-2.066-1.295-2.819-2.027z"/>
            <path d="M567.72 393.932l-.164 4.574c0 1.512.773 2.94 2.145 4.21l-.003-4.7c-1.27-1.237-1.978-2.621-1.978-4.084zM588.144 403.398l-.464-.003.004 4.574.46.002c.598 0 1.19-.013 1.776-.036l-.004-4.573c-.585.024-1.175.036-1.772.036zM572.518 400.043l.002 4.627c.688.368 1.435.711 2.237 1.028l-.003-4.603a20.637 20.637 0 0 1-2.236-1.052zM574.754 401.094l.003 4.603c.878.346 1.82.658 2.818.932l-.003-4.586a26.752 26.752 0 0 1-2.818-.95zM582.627 403.051l.002 4.576c.73.092 1.476.168 2.237.223l-.003-4.574c-.76-.056-1.506-.13-2.236-.225zM605.076 399.393l.003 4.496c1.232-.818 2.19-1.729 2.816-2.705l-.002-4.317c-.661.91-1.617 1.76-2.817 2.526z"/>
            <path d="M602.84 400.597l.004 4.535c.82-.384 1.568-.8 2.236-1.243l-.003-4.496c-.673.43-1.421.832-2.236 1.204z"/>
            <path d="M600.023 401.678l.004 4.557a24.518 24.518 0 0 0 2.817-1.103l-.003-4.535c-.868.396-1.81.76-2.818 1.081zM589.916 403.362l.004 4.573c.96-.038 1.9-.105 2.817-.201l-.002-4.573c-.919.095-1.86.163-2.819.201zM607.893 396.867l.002 4.317c.451-.705.73-1.443.812-2.206v-.004c.017-.156.025-.312.025-.468 0-.166.045-.353.026-.517l.137-3.51c-.106.828-.451 1.629-1.002 2.388z"/>
            <path d="M592.735 403.16l.002 4.574c.762-.08 1.509-.18 2.237-.297l-.003-4.572a39 39 0 0 1-2.236.296z"/>
            <path d="M594.97 402.866l.004 4.572a36.54 36.54 0 0 0 2.817-.568l-.002-4.567c-.904.218-1.845.407-2.818.563z"/>
            <path d="M597.788 402.303l.003 4.567c.776-.19 1.523-.401 2.236-.634l-.004-4.557c-.713.227-1.46.437-2.235.624z"/>
        </g>
        <g stroke-width=".5" transform="translate(614.064 430.569)">
            <path fill="#FCA306" fill-rule="nonzero" stroke="#0C110E" d="M41.789 10.062c-.639 4.963-9.797 8.92-20.751 8.92-11.37 0-20.424-4.238-20.424-9.466L.45 14.09c0 5.227 9.218 9.465 20.588 9.465 11.026 0 20.027-3.986 20.563-8.993v-.004c.017-.156.025-.312.025-.468 0-.166.045-.353.026-.517l.137-3.51z"/>
            <ellipse cx="21.201" cy="9.516" fill="#FFD00B" fill-rule="nonzero" stroke="#13261B" rx="20.587" ry="9.465"/>
            <ellipse cx="21.201" cy="9.516" fill="#FFD00B" fill-rule="nonzero" stroke="#13261B" rx="17.001" ry="7.378"/>
            <g stroke="#0C110E">
                <path d="M12.703 18.167l.002 4.58c.907.185 1.849.34 2.818.464l-.002-4.576a38.005 38.005 0 0 1-2.818-.468z"/>
                <path d="M10.466 17.627l.003 4.586c.719.198 1.465.377 2.236.534l-.002-4.58c-.772-.16-1.519-.34-2.237-.54zM17.757 18.86l.003 4.574c.92.068 1.86.108 2.818.119l-.004-4.574a44.897 44.897 0 0 1-2.817-.119zM2.592 13.6l.003 4.7c.764.704 1.712 1.361 2.818 1.953l-.002-4.626c-1.115-.614-2.066-1.295-2.819-2.027z"/>
                <path d="M.614 9.516L.45 14.089c0 1.512.773 2.941 2.145 4.21l-.003-4.7C1.322 12.363.614 10.979.614 9.516zM21.038 18.981l-.464-.002.004 4.573.46.002c.598 0 1.19-.013 1.776-.035l-.004-4.574c-.585.024-1.175.036-1.772.036zM5.412 15.627l.002 4.626c.688.368 1.435.711 2.237 1.028l-.003-4.603a20.414 20.414 0 0 1-2.236-1.051z"/>
                <path d="M7.647 16.678l.003 4.603c.878.346 1.821.658 2.818.932l-.003-4.586a27.195 27.195 0 0 1-2.818-.95zM15.52 18.635l.003 4.576c.73.092 1.476.168 2.237.223l-.003-4.574a41.106 41.106 0 0 1-2.236-.225zM37.97 14.976l.003 4.497c1.232-.818 2.19-1.73 2.816-2.706l-.002-4.317c-.661.91-1.617 1.76-2.817 2.526zM35.734 16.18l.003 4.536c.82-.385 1.568-.8 2.236-1.243l-.003-4.497c-.672.43-1.42.833-2.236 1.205z"/>
                <path d="M32.917 17.262l.003 4.557a24.518 24.518 0 0 0 2.818-1.103l-.003-4.535c-.868.396-1.81.758-2.818 1.08zM22.81 18.946l.004 4.573c.96-.038 1.9-.105 2.817-.201l-.002-4.573c-.919.095-1.86.163-2.819.201zM40.787 12.45l.002 4.317c.451-.705.73-1.443.812-2.206v-.004c.017-.156.025-.312.025-.468 0-.166.045-.353.026-.517l.137-3.51c-.106.829-.452 1.63-1.002 2.388z"/>
                <path d="M25.629 18.745l.002 4.573c.762-.08 1.509-.18 2.237-.297l-.003-4.572c-.73.117-1.476.216-2.236.296z"/>
                <path d="M27.865 18.449l.003 4.572a36.54 36.54 0 0 0 2.817-.567l-.002-4.568c-.904.218-1.845.407-2.818.563z"/>
                <path d="M30.682 17.886l.003 4.568c.776-.19 1.523-.402 2.235-.635l-.003-4.556c-.713.227-1.46.436-2.235.623z"/>
            </g>
        </g>
        <path stroke="#6B1F50" stroke-width=".81" d="M512.774 291.029s4.153 8.212 10.203 9.307"/>
    </g>
</svg>
