<?xml version="1.0" encoding="UTF-8" standalone="no"?>
<svg width="18px" height="15px" viewBox="0 0 18 15" version="1.1" xmlns="http://www.w3.org/2000/svg" xmlns:xlink="http://www.w3.org/1999/xlink">
    <!-- Generator: sketchtool 49.1 (51147) - http://www.bohemiancoding.com/sketch -->
    <title>8E4614F0-EB4B-44B9-818F-067FF61C6DBB</title>
    <desc>Created with sketchtool.</desc>
    <defs></defs>
    <g id="Page-1" stroke="none" stroke-width="1" fill="none" fill-rule="evenodd">
        <g id="Homepage_latest" transform="translate(-1198.000000, -3735.000000)" fill="#6D6F7B" fill-rule="nonzero">
            <g id="section_footer" transform="translate(0.000000, 3622.000000)">
                <g id="meta_social" transform="translate(0.000000, 112.000000)">
                    <g id="icon_social" transform="translate(1162.000000, 0.000000)">
                        <g id="telegram" transform="translate(36.719777, 1.000000)">
                            <path d="M15.7416474,0.00139721728 C15.5219466,0.0114353831 15.3150195,0.0741737591 15.1310842,0.14444092 L15.1285297,0.14444092 C14.9420393,0.217217462 14.0555738,0.583610836 12.7092694,1.13821934 C11.3629651,1.69533786 9.61557972,2.41808581 7.8809675,3.13581434 C4.41685268,4.56876268 1.01149515,5.97912466 1.01149515,5.97912466 L1.05236966,5.96406773 C1.05236966,5.96406773 0.817341218,6.03935365 0.572094152,6.20498371 C0.446916125,6.28528904 0.308964323,6.39570886 0.188895938,6.56886706 C0.0688268978,6.74202526 -0.0282503929,7.00803698 0.00751513123,7.28157684 C0.0662724044,7.74584185 0.372831237,8.02440111 0.592531407,8.17748298 C0.814786725,8.33307487 1.02682341,8.40585141 1.02682341,8.40585141 L1.0319324,8.40585141 L4.2252539,9.46236821 C4.36831469,9.91408567 5.19857804,12.5942759 5.39784095,13.2116235 C5.5153555,13.5805262 5.63031489,13.811404 5.77337568,13.9870716 C5.84235158,14.0774151 5.92410061,14.1527017 6.02117724,14.2129307 C6.05949726,14.2355164 6.10037177,14.2530833 6.14124628,14.2681403 C6.1540194,14.2756691 6.16679318,14.2781784 6.18212079,14.2806878 L6.14891042,14.2731597 C6.15912905,14.2756691 6.16679318,14.2831978 6.17445666,14.2857072 C6.20000356,14.293236 6.21788632,14.2957454 6.2510967,14.3007641 C6.75691844,14.4513366 7.16310906,14.1426635 7.16310906,14.1426635 L7.18610081,14.1250966 L9.07143796,12.4386847 L12.2315484,14.8202394 L12.3030788,14.8503539 C12.9621806,15.1339319 13.6289459,14.9758313 13.9814883,14.697272 C14.3365858,14.4162034 14.4745376,14.0573388 14.4745376,14.0573388 L14.4975293,13.9996192 L16.9397813,1.71039479 C17.0087572,1.40674044 17.0266393,1.12316241 16.95,0.847112529 C16.8733599,0.57106329 16.6766515,0.312580359 16.4390686,0.174555418 C16.1989305,0.0340210957 15.9613476,-0.00864094857 15.7416474,0.00139721728 Z M15.675226,1.31890632 C15.6726715,1.35905899 15.6803356,1.35404023 15.6624529,1.43183553 L15.6624529,1.43936431 L13.2431926,13.6006026 C13.232974,13.6181689 13.2150912,13.6558121 13.1665532,13.6934554 C13.1154601,13.7336081 13.0745855,13.7587032 12.8625489,13.6758885 L8.99735307,10.7648204 L6.6623963,12.8552683 L7.15289043,9.77857075 C7.15289043,9.77857075 13.2074277,4.23499382 13.4680024,3.99658722 C13.7285777,3.75818062 13.6417191,3.7079898 13.6417191,3.7079898 C13.6596018,3.41688299 13.2483022,3.62266571 13.2483022,3.62266571 L5.28543604,8.46858979 L5.28288155,8.45604224 L1.46622441,7.19374272 L1.46622441,7.19123334 C1.46366926,7.19123334 1.45856027,7.18872396 1.45600578,7.18872396 C1.45856027,7.18872396 1.47644304,7.18119518 1.47644304,7.18119518 L1.49688029,7.17115701 L1.51731755,7.16362823 C1.51731755,7.16362823 4.92522958,5.75326625 8.38934439,4.32031791 C10.1239566,3.60258938 11.871342,2.87984143 13.2150912,2.32272291 C14.5588411,1.76811441 15.5526025,1.36156837 15.6088052,1.33898266 C15.6624529,1.31890632 15.636906,1.31890632 15.675226,1.31890632 Z" id="Shape"></path>
                        </g>
                    </g>
                </g>
            </g>
        </g>
    </g>
</svg>