<?xml version="1.0" encoding="UTF-8" standalone="no"?>
<svg width="20px" height="16px" viewBox="0 0 20 16" version="1.1" xmlns="http://www.w3.org/2000/svg" xmlns:xlink="http://www.w3.org/1999/xlink">
    <!-- Generator: sketchtool 49.1 (51147) - http://www.bohemiancoding.com/sketch -->
    <title>D5FF0993-7E84-42D9-8F4E-4D993DEA7296</title>
    <desc>Created with sketchtool.</desc>
    <defs></defs>
    <g id="Page-1" stroke="none" stroke-width="1" fill="none" fill-rule="evenodd">
        <g id="Homepage_latest" transform="translate(-1233.000000, -3734.000000)" fill="#6D6F7B">
            <g id="section_footer" transform="translate(0.000000, 3622.000000)">
                <g id="meta_social" transform="translate(0.000000, 112.000000)">
                    <g id="icon_social" transform="translate(1162.000000, 0.000000)">
                        <path d="M77.4876314,15.3847029 C84.7443623,15.3847029 88.7135935,9.46523151 88.7135935,4.33217365 C88.7135935,4.16361596 88.7135935,3.99601018 88.7020541,3.82980825 C89.4741708,3.28049093 90.1405159,2.59876975 90.6703242,1.81893319 C89.9510942,2.13302935 89.186671,2.33960628 88.4049405,2.43022167 C89.2280165,1.94476011 89.8443633,1.18181778 90.1395549,0.281317751 C89.3645551,0.73391392 88.5174392,1.05317355 87.6337847,1.22453894 C86.139555,-0.339364961 83.6405154,-0.415422656 82.0510934,1.05599085 C81.0270544,2.00438512 80.5914774,3.41851978 80.9097469,4.76786598 C77.7376316,4.61058712 74.781862,3.13588515 72.7780161,0.709500458 C71.7309005,2.48421205 72.2664776,4.75425059 74.0001315,5.89420255 C73.372247,5.8763564 72.7578235,5.70968331 72.2087854,5.408741 L72.2087854,5.45802946 C72.2097468,7.30693337 73.5337852,8.89901034 75.3741699,9.26522189 C74.7934006,9.42155844 74.1837853,9.4440969 73.5934004,9.3314142 C74.1097467,10.9145777 75.5914774,11.9986547 77.2789775,12.0296451 C75.8818621,13.1109047 74.1559004,13.6977797 72.3789777,13.6959047 C72.065516,13.6949624 71.7520542,13.6771259 71.4395544,13.6400297 C73.244362,14.7799817 75.3434011,15.3847029 77.4876314,15.3818856" id="Fill-3"></path>
                    </g>
                </g>
            </g>
        </g>
    </g>
</svg>