<?xml version="1.0" encoding="UTF-8" standalone="no"?>
<svg width="20px" height="14px" viewBox="0 0 20 14" version="1.1" xmlns="http://www.w3.org/2000/svg" xmlns:xlink="http://www.w3.org/1999/xlink">
    <!-- Generator: sketchtool 49.1 (51147) - http://www.bohemiancoding.com/sketch -->
    <title>C48279AF-DDF1-4CA6-94B8-A284E75175A4</title>
    <desc>Created with sketchtool.</desc>
    <defs></defs>
    <g id="Page-1" stroke="none" stroke-width="1" fill="none" fill-rule="evenodd">
        <g id="Homepage_latest" transform="translate(-1296.000000, -3735.000000)" fill="#6D6F7B">
            <g id="section_footer" transform="translate(0.000000, 3622.000000)">
                <g id="meta_social" transform="translate(0.000000, 112.000000)">
                    <g id="icon_social" transform="translate(1162.000000, 0.000000)">
                        <path d="M142.010528,10.480592 L142.010528,4.93045025 C143.980839,5.85764805 145.506852,6.75345465 147.311643,7.7187986 C145.823087,8.54458322 143.980839,9.47033706 142.010528,10.480592 M152.991092,2.1701008 C152.65121,1.72196014 152.071923,1.37376893 151.455239,1.25836124 C149.642525,0.914521678 138.333926,0.913552447 136.522224,1.25836124 C136.027674,1.35108102 135.5873,1.57515135 135.208996,1.92333267 C133.615012,3.40298212 134.114498,11.3368085 134.498702,12.6218404 C134.660268,13.178159 134.869128,13.5794601 135.132167,13.8426557 C135.471052,14.1908371 135.935059,14.4308404 136.468032,14.5380492 C137.960542,14.8471151 145.649689,15.0195195 151.4237,14.584414 C151.955691,14.4916942 152.426594,14.2444415 152.797986,13.8812865 C154.271784,12.4079074 154.171308,4.02787882 152.991092,2.1701008" id="youtube"></path>
                    </g>
                </g>
            </g>
        </g>
    </g>
</svg>